<svg width="40" height="40" viewBox="0 0 40 40" fill="none" xmlns="http://www.w3.org/2000/svg">
<path opacity="0.896" fill-rule="evenodd" clip-rule="evenodd" d="M20.1 5.1C20.737 5.00392 21.3038 5.13726 21.8 5.5C21.9334 15.1 21.9334 24.7 21.8 34.3C21.3006 34.6956 20.7338 34.7956 20.1 34.6C17.3602 31.9266 14.5602 29.3266 11.7 26.8C9.56665 26.7334 7.43333 26.6666 5.29999 26.6C4.93333 26.3666 4.63333 26.0666 4.39999 25.7C4.26665 21.8334 4.26665 17.9667 4.39999 14.1C4.63333 13.7333 4.93333 13.4333 5.29999 13.2C7.43333 13.1333 9.56665 13.0667 11.7 13C14.5999 10.4666 17.3999 7.83328 20.1 5.1ZM20.7 6.1C20.8234 6.12214 20.9234 6.1888 21 6.3C21.1334 15.3667 21.1334 24.4334 21 33.5C20.9334 33.5666 20.8666 33.6334 20.8 33.7C18 31.1666 15.2 28.6334 12.4 26.1C12.3665 23.3642 12.2665 20.6308 12.1 17.9C11.9002 20.5634 11.8335 23.23 11.9 25.9C10.0321 25.9332 8.16547 25.9 6.29999 25.8C5.93421 25.7454 5.63421 25.5786 5.39999 25.3C5.17503 23.5142 5.07503 21.7142 5.09999 19.9C5.07503 18.0857 5.17503 16.2857 5.39999 14.5C5.63421 14.2214 5.93421 14.0547 6.29999 14C8.29999 13.9333 10.3 13.8667 12.3 13.8C15.1392 11.2601 17.9392 8.69348 20.7 6.1Z" fill="black"/>
<path fill-rule="evenodd" clip-rule="evenodd" d="M23.3 6.30005C29.6842 7.44155 33.5842 11.1749 35 17.5C35.746 24.5108 32.9794 29.544 26.7 32.6C25.6892 32.9814 24.656 33.2814 23.6 33.5C23.0948 33.3744 22.9282 33.1078 23.1 32.7C30.8666 30.7006 34.4998 25.7006 34 17.7C32.5746 11.9081 28.9412 8.37477 23.1 7.10005C22.9134 6.80311 22.98 6.53643 23.3 6.30005Z" fill="black"/>
<path fill-rule="evenodd" clip-rule="evenodd" d="M23.1 10.5C26.9766 11.1413 29.5432 13.3413 30.8 17.1C32.0094 22.9828 29.8428 27.0162 24.3 29.2C23.9054 29.299 23.5054 29.3324 23.1 29.3C23.0572 28.9712 23.124 28.6712 23.3 28.4C28.7218 26.6378 30.8884 22.9378 29.8 17.3C28.7116 14.1448 26.5448 12.1782 23.3 11.4C23.124 11.1288 23.0572 10.8288 23.1 10.5Z" fill="black"/>
<path opacity="0.887" fill-rule="evenodd" clip-rule="evenodd" d="M11.9 14.7C12.1172 14.724 12.2505 14.8573 12.3 15.1C12.2333 15.2333 12.1666 15.3666 12.1 15.5C11.9142 15.2622 11.8476 14.9955 11.9 14.7Z" fill="black"/>
<path fill-rule="evenodd" clip-rule="evenodd" d="M23.1 14.7C25.1168 15.0821 26.4168 16.2821 27 18.3C27.6178 21.049 26.7846 23.2158 24.5 24.8C24.0646 25.0404 23.5978 25.1404 23.1 25.1C23.0686 24.8254 23.102 24.5586 23.2 24.3C26.1034 22.6564 26.8366 20.3232 25.4 17.3C24.6838 16.4495 23.8504 15.7495 22.9 15.2C23.0504 15.0658 23.1172 14.8991 23.1 14.7Z" fill="black"/>
<path opacity="0.943" fill-rule="evenodd" clip-rule="evenodd" d="M11.9 15.8999C12.1496 16.0667 12.2829 16.3333 12.3 16.6999C12.2333 16.9666 12.1667 17.2332 12.1 17.4999C11.904 16.9826 11.8373 16.4493 11.9 15.8999Z" fill="black"/>
</svg>
