<svg width="40" height="40" viewBox="0 0 40 40" fill="none" xmlns="http://www.w3.org/2000/svg">
<path opacity="0.825" fill-rule="evenodd" clip-rule="evenodd" d="M19.5001 5.10001C19.7747 5.06867 20.0415 5.10201 20.3001 5.20001C25.5587 14.4171 30.7921 23.6504 36.0001 32.9C36.2405 33.3354 36.3405 33.8022 36.3001 34.3C25.3667 34.3 14.4334 34.3 3.50006 34.3C3.46802 33.9602 3.50136 33.6268 3.60006 33.3C8.90246 23.8946 14.2025 14.4946 19.5001 5.10001ZM19.7001 6.70001C20.1553 7.06613 20.5219 7.53279 20.8001 8.10001C25.5415 16.5496 30.3081 24.9828 35.1001 33.4C24.9667 33.5334 14.8334 33.5334 4.70006 33.4C9.83154 24.57 14.8315 15.67 19.7001 6.70001ZM19.3001 17.9C19.7001 17.9 20.1001 17.9 20.5001 17.9C20.5001 20.3 20.5001 22.7 20.5001 25.1C20.1001 25.1 19.7001 25.1 19.3001 25.1C19.3001 22.7 19.3001 20.3 19.3001 17.9ZM19.5001 27.3C20.4319 27.203 20.6985 27.5696 20.3001 28.4C19.3457 28.562 19.079 28.1954 19.5001 27.3Z" fill="#DF4141"/>
<path opacity="0.613" fill-rule="evenodd" clip-rule="evenodd" d="M19.7 9.70001C20.0034 9.70213 20.2368 9.83545 20.4 10.1C21.2826 11.799 22.216 13.4657 23.2 15.1C23.3422 15.8997 23.1422 16.033 22.6 15.5C21.8 14.0334 21 12.5667 20.2 11.1C20.0564 10.9099 19.8898 10.8766 19.7 11C16.4413 16.7505 13.208 22.5172 9.99995 28.3C9.75671 28.7936 9.42337 29.1936 8.99995 29.5C8.89995 29.4334 8.79995 29.3666 8.69995 29.3C12.369 22.7612 16.0357 16.2279 19.7 9.70001Z" fill="#DF4141"/>
<path opacity="0.544" fill-rule="evenodd" clip-rule="evenodd" d="M23.3 16.3C23.9 16.2333 24.1666 16.5 24.1 17.1C23.5 17.1666 23.2334 16.9 23.3 16.3Z" fill="#DF4141"/>
<path opacity="0.714" fill-rule="evenodd" clip-rule="evenodd" d="M18.7 17.5C19.5 17.5 20.3 17.5 21.1 17.5C21.1334 20.1008 21.1 22.7008 21 25.3C20.2666 25.5666 19.5333 25.5666 18.8 25.3C18.7 22.7008 18.6667 20.1008 18.7 17.5ZM19.3 17.9C19.3 20.3 19.3 22.7 19.3 25.1C19.7 25.1 20.1 25.1 20.5 25.1C20.5 22.7 20.5 20.3 20.5 17.9C20.1 17.9 19.7 17.9 19.3 17.9Z" fill="#DF4141"/>
<path opacity="0.611" fill-rule="evenodd" clip-rule="evenodd" d="M23.9 17.5C24.6018 17.5616 24.9352 17.9616 24.9 18.7C24.2918 18.5602 23.9584 18.1602 23.9 17.5Z" fill="#DF4141"/>
<path opacity="0.799" fill-rule="evenodd" clip-rule="evenodd" d="M24.9 19.1C25.3184 19.1123 25.6184 19.3123 25.8 19.7C27.9826 23.7322 30.216 27.7322 32.5 31.7C24.5666 31.9666 16.6333 31.9666 8.69995 31.7C16.3 31.5666 23.9 31.4334 31.5 31.3C29.5174 27.6676 27.484 24.0676 25.4 20.5C25.1178 20.07 24.951 19.6032 24.9 19.1Z" fill="#DF4141"/>
<path opacity="0.626" fill-rule="evenodd" clip-rule="evenodd" d="M19.1 26.7C21.0974 26.4664 21.6308 27.233 20.7 29C18.6867 29.2934 18.1534 28.5268 19.1 26.7ZM19.5 27.3C19.0789 28.1954 19.3456 28.562 20.3 28.4C20.6984 27.5696 20.4318 27.203 19.5 27.3Z" fill="#DF4141"/>
</svg>
