<svg width="512" height="512" viewBox="0 0 512 512" fill="none" xmlns="http://www.w3.org/2000/svg">
<g clip-path="url(#clip0_207_1966)">
<path opacity="0.995" fill-rule="evenodd" clip-rule="evenodd" d="M235.5 -0.5C248.833 -0.5 262.167 -0.5 275.5 -0.5C367.401 9.51499 436.234 54.515 482 134.5C498.218 165.726 508.051 198.726 511.5 233.5C511.5 248.167 511.5 262.833 511.5 277.5C502.24 359.21 463.906 423.377 396.5 470C359.448 493.517 319.114 507.35 275.5 511.5C262.167 511.5 248.833 511.5 235.5 511.5C143.599 501.485 74.7659 456.485 29 376.5C12.7823 345.274 2.94896 312.274 -0.5 277.5C-0.5 262.833 -0.5 248.167 -0.5 233.5C8.76043 151.79 47.0938 87.6229 114.5 41C151.552 17.4829 191.886 3.64953 235.5 -0.5Z" fill="#32BEA6"/>
<path fill-rule="evenodd" clip-rule="evenodd" d="M344.5 134.5C360.454 144.484 376.121 154.984 391.5 166C338.963 240.905 286.797 316.072 235 391.5C195.257 360.379 155.424 329.379 115.5 298.5C114.417 297.635 114.251 296.635 115 295.5C126.387 281.62 137.554 267.62 148.5 253.5C170.643 270.476 192.643 287.642 214.5 305C217.199 307.51 220.199 309.176 223.5 310C264.079 251.602 304.413 193.102 344.5 134.5Z" fill="#FEFEFE"/>
</g>
<defs>
<clipPath id="clip0_207_1966">
<rect width="512" height="512" fill="white"/>
</clipPath>
</defs>
</svg>
