<svg width="70" height="70" viewBox="0 0 70 70" fill="none" xmlns="http://www.w3.org/2000/svg">
<path d="M30.625 10.185C25.655 11.025 21.175 13.405 17.29 17.29C14.14 20.44 12.32 23.415 10.92 27.58C10.15 29.89 10.01 30.94 10.01 34.825C9.97503 40.005 10.605 42.665 12.88 47.075C14.63 50.435 19.565 55.37 22.925 57.12C27.335 59.395 29.995 60.025 35.175 59.99C39.06 59.99 40.11 59.85 42.42 59.08C46.13 57.855 49.315 55.965 52.045 53.445C64.12 42.175 62.475 23.065 48.615 13.895C43.61 10.57 36.75 9.13499 30.625 10.185ZM42.175 12.39C45.92 13.58 48.965 15.435 51.765 18.235C54.53 21 56.385 24.045 57.645 27.825C58.45 30.24 58.59 31.185 58.59 35C58.59 38.78 58.45 39.76 57.645 42.175C54.88 50.54 48.265 56.49 39.83 58.24C23.065 61.705 8.29503 46.935 11.76 30.17C13.72 20.685 20.93 13.65 30.835 11.55C33.565 10.99 39.06 11.375 42.175 12.39Z" fill="black"/>
<path d="M30.345 13.825C16.275 17.395 9.34504 31.955 15.645 44.765C17.465 48.475 21.525 52.535 25.235 54.355C28.875 56.14 32.235 56.805 36.225 56.56C44.24 56.07 50.75 51.765 54.25 44.695C57.4701 38.185 57.4701 31.815 54.25 25.305C52.8501 22.47 49.6651 18.48 49.175 18.97C49.035 19.11 49.7001 20.09 50.68 21.175C57.855 29.015 57.6451 41.44 50.155 49.385C47.9151 51.765 46.9 52.325 46.9 51.275C46.9 50.365 45.57 48.02 44.73 47.46C44.31 47.145 42.98 46.585 41.755 46.165C40.53 45.78 39.305 45.185 39.025 44.905C38.535 44.45 38.64 44.275 39.83 43.435C41.335 42.315 42.21 41.125 42.56 39.69C42.7 39.13 43.015 38.325 43.295 37.905C44.17 36.575 43.68 28.84 42.56 26.495C41.265 23.835 37.94 21.7 35 21.7C32.06 21.7 28.735 23.835 27.44 26.495C26.32 28.84 25.83 36.575 26.705 37.905C26.985 38.325 27.3 39.13 27.44 39.69C27.79 41.125 28.665 42.315 30.17 43.435C31.36 44.275 31.465 44.45 30.975 44.905C30.695 45.185 29.4 45.78 28.105 46.235C25.34 47.145 23.59 48.72 23.24 50.575C23.135 51.24 22.82 51.8 22.575 51.8C21.945 51.8 18.095 47.635 16.975 45.71C14.315 41.125 13.405 35.63 14.49 30.695C16.625 21.07 25.305 14 35 14C36.785 14 40.705 14.7 42.105 15.225C42.455 15.365 42.7 15.33 42.7 15.085C42.7 13.825 33.915 12.915 30.345 13.825ZM38.85 24.29C40.95 25.655 41.685 27.23 42.07 30.905C42.49 35.245 42.455 36.715 41.86 37.59C41.615 38.01 41.265 38.85 41.16 39.445C40.915 40.495 38.15 43.4 37.415 43.4C36.82 43.4 37.1 45.01 37.765 45.745C38.15 46.165 39.515 46.83 40.775 47.25C43.575 48.195 45.01 49.35 45.5 51.03C46.025 52.99 45.99 53.025 43.82 54.005C38.045 56.595 31.955 56.595 26.18 54.005C24.01 53.025 23.975 52.99 24.5 51.03C24.99 49.35 26.425 48.195 29.225 47.25C30.485 46.83 31.85 46.165 32.235 45.745C32.9 45.01 33.18 43.4 32.585 43.4C31.85 43.4 29.085 40.495 28.84 39.445C28.735 38.85 28.385 37.975 28.105 37.555C27.51 36.645 27.475 35.455 27.93 30.905C28.385 26.565 29.785 24.395 32.83 23.415C34.44 22.89 37.38 23.31 38.85 24.29Z" fill="black"/>
<path d="M44.59 16.275C44.975 16.555 45.535 16.8 45.815 16.8C46.27 16.765 46.235 16.66 45.71 16.275C45.325 15.995 44.765 15.75 44.485 15.75C44.03 15.785 44.065 15.89 44.59 16.275Z" fill="black"/>
<path d="M46.97 17.57C47.075 17.815 47.425 18.095 47.81 18.165C48.37 18.27 48.405 18.2 47.985 17.71C47.425 17.045 46.795 16.975 46.97 17.57Z" fill="black"/>
</svg>
