<svg width="30" height="30" viewBox="0 0 30 30" fill="none" xmlns="http://www.w3.org/2000/svg">
<path fill-rule="evenodd" clip-rule="evenodd" d="M7.12491 5.02501C7.37979 5.00098 7.62979 5.02598 7.87491 5.10001C10.202 7.45211 12.552 9.77711 14.9249 12.075C17.2978 9.77711 19.6478 7.45211 21.9749 5.10001C22.225 5 22.4749 5 22.7249 5.10001C23.3999 5.77501 24.0749 6.45001 24.7499 7.12501C24.85 7.37501 24.85 7.625 24.7499 7.87501C22.3978 10.2021 20.0728 12.5521 17.7749 14.925C20.0728 17.2979 22.3978 19.6479 24.7499 21.975C24.85 22.2251 24.85 22.475 24.7499 22.725C24.0749 23.4 23.3999 24.075 22.7249 24.75C22.4749 24.8501 22.225 24.8501 21.9749 24.75C19.6478 22.3979 17.2978 20.0729 14.9249 17.775C12.552 20.0729 10.202 22.3979 7.87491 24.75C7.6249 24.8501 7.37491 24.8501 7.12491 24.75C6.44991 24.075 5.77491 23.4 5.09991 22.725C4.9999 22.475 4.9999 22.2251 5.09991 21.975C7.45201 19.6479 9.77701 17.2979 12.0749 14.925C9.77701 12.5521 7.45201 10.2021 5.09991 7.87501C4.9999 7.625 4.9999 7.37501 5.09991 7.12501C5.8054 6.44468 6.4804 5.74469 7.12491 5.02501ZM7.42491 5.92501C9.84469 8.26973 12.2447 10.6447 14.6249 13.05C14.8249 13.15 15.025 13.15 15.2249 13.05C17.5999 10.675 19.975 8.3 22.3499 5.92501C22.8749 6.45001 23.3999 6.97501 23.9249 7.50001C21.4388 9.91082 19.0388 12.3858 16.7249 14.925C19.0388 17.4642 21.4388 19.9392 23.9249 22.35C23.3999 22.875 22.8749 23.4 22.3499 23.925C19.9391 21.4389 17.4641 19.0389 14.9249 16.725C12.3857 19.0389 9.91072 21.4389 7.49991 23.925C6.97491 23.4 6.44991 22.875 5.92491 22.35C8.41102 19.9392 10.811 17.4642 13.1249 14.925C10.811 12.3858 8.41102 9.91082 5.92491 7.50001C6.45552 6.99464 6.95551 6.46964 7.42491 5.92501Z" fill="black"/>
<path fill-rule="evenodd" clip-rule="evenodd" d="M7.42498 7.42501C7.87498 7.37501 8.07497 7.57501 8.02498 8.02501C7.57498 8.075 7.37498 7.87501 7.42498 7.42501Z" fill="black"/>
<path fill-rule="evenodd" clip-rule="evenodd" d="M21.975 7.42499C22.125 7.42499 22.275 7.42499 22.425 7.42499C22.4749 7.87499 22.275 8.07498 21.825 8.02499C21.8149 7.80618 21.8649 7.60617 21.975 7.42499Z" fill="black"/>
<path fill-rule="evenodd" clip-rule="evenodd" d="M8.32495 8.32501C8.87496 8.37501 9.17496 8.67501 9.22495 9.22501C8.67495 9.17502 8.37495 8.87502 8.32495 8.32501Z" fill="black"/>
<path fill-rule="evenodd" clip-rule="evenodd" d="M21.0751 8.32501C21.2251 8.32501 21.3751 8.32501 21.5251 8.32501C21.5474 8.48281 21.5225 8.63281 21.4501 8.77501C19.3979 10.8021 17.3729 12.8521 15.3751 14.925C16.9729 16.598 18.598 18.248 20.2501 19.875C20.3225 20.0172 20.3474 20.1672 20.3251 20.325C20.1673 20.3474 20.0173 20.3225 19.8751 20.25C18.248 18.5979 16.598 16.9728 14.9251 15.375C12.8522 17.3729 10.8022 19.3979 8.77509 21.45C8.63289 21.5225 8.48289 21.5474 8.32509 21.525C8.30267 21.3672 8.32767 21.2172 8.40009 21.075C10.4522 19.0479 12.4772 16.9979 14.4751 14.925C12.8772 13.2521 11.2522 11.6021 9.60009 9.97501C9.52767 9.83281 9.50267 9.68281 9.52509 9.52501C9.68289 9.50259 9.83289 9.52759 9.97509 9.60001C11.6022 11.2522 13.2522 12.8772 14.9251 14.475C17.0282 12.4719 19.0783 10.4219 21.0751 8.32501Z" fill="black"/>
<path fill-rule="evenodd" clip-rule="evenodd" d="M20.625 20.625C21.175 20.6749 21.475 20.9749 21.525 21.525C20.9749 21.475 20.6749 21.175 20.625 20.625Z" fill="black"/>
<path fill-rule="evenodd" clip-rule="evenodd" d="M7.5751 21.825C7.7251 21.825 7.8751 21.825 8.0251 21.825C8.0751 22.275 7.8751 22.475 7.4251 22.425C7.41499 22.2062 7.46499 22.0062 7.5751 21.825Z" fill="black"/>
<path fill-rule="evenodd" clip-rule="evenodd" d="M21.8251 21.825C22.2751 21.775 22.4751 21.975 22.4251 22.425C21.9751 22.4749 21.7752 22.275 21.8251 21.825Z" fill="black"/>
</svg>
