<svg width="70" height="70" viewBox="0 0 70 70" fill="none" xmlns="http://www.w3.org/2000/svg">
<path d="M29.575 11.585C21.035 12.81 12.88 17.745 9.13502 23.975C4.51502 31.605 5.63502 40.145 12.145 46.935L14.805 49.7L14.595 52.78C14.385 56.035 13.755 58.205 12.6 59.885C11.69 61.145 11.935 61.6 13.58 61.6C17.64 61.565 22.68 59.5 25.515 56.7L27.125 55.125L29.4 55.51C38.57 57.155 49.49 54.39 55.965 48.86C62.265 43.435 64.82 36.505 63.175 29.435C60.34 17.43 45.15 9.345 29.575 11.585ZM43.33 13.615C61.32 18.095 68.075 34.86 56.525 46.375C53.83 49.035 51.415 50.61 47.705 52.15C42.28 54.355 35.245 55.125 29.61 54.145L26.495 53.585L24.955 55.3C23.1 57.365 19.32 59.36 16.38 59.78C15.26 59.955 14.35 59.99 14.35 59.885C14.35 59.78 14.665 58.835 15.085 57.785C15.505 56.595 15.855 54.635 15.995 52.5L16.205 49.14L13.615 46.515C0.840021 33.705 9.73002 16.135 30.625 12.81C33.005 12.46 40.495 12.915 43.33 13.615Z" fill="black"/>
<path d="M30.975 14.91C22.505 16.135 15.225 20.44 11.795 26.25C9.66004 29.89 9.31004 34.825 10.815 38.85C11.655 41.02 14.035 44.485 14.245 43.855C14.35 43.61 14 42.91 13.51 42.245C13.02 41.615 12.18 40.145 11.655 39.025C10.815 37.205 10.675 36.505 10.675 33.6C10.675 30.695 10.815 29.995 11.655 28.21C14.315 22.47 19.635 18.445 27.125 16.415C29.33 15.785 30.94 15.645 34.825 15.61C41.335 15.61 45.605 16.66 50.225 19.425C52.325 20.685 53.34 20.79 51.8 19.565C50.295 18.41 46.06 16.52 43.19 15.75C40.495 15.05 33.46 14.56 30.975 14.91Z" fill="black"/>
<path d="M33.04 19.915C31.92 20.405 30.8 22.015 30.8 23.135C30.8 23.765 31.185 24.57 31.815 25.27C32.725 26.285 33.04 26.425 34.65 26.425C36.26 26.425 36.575 26.285 37.485 25.27C38.78 23.8 38.8151 22.4 37.555 21C36.505 19.81 34.44 19.32 33.04 19.915ZM36.715 21.21C37.45 21.84 37.8 22.435 37.8 23.1C37.8 24.36 36.05 25.9 34.65 25.9C33.25 25.9 31.5 24.36 31.5 23.1C31.5 21.84 33.25 20.3 34.65 20.3C35.21 20.3 36.12 20.685 36.715 21.21Z" fill="black"/>
<path d="M53.27 21.385C53.34 21.63 53.62 21.91 53.865 21.98C54.145 22.085 54.285 21.945 54.18 21.665C54.11 21.42 53.83 21.14 53.585 21.07C53.305 20.965 53.165 21.105 53.27 21.385Z" fill="black"/>
<path d="M54.95 22.68C54.95 22.855 55.195 23.205 55.475 23.45C55.755 23.695 56 23.73 56 23.52C56 23.345 55.755 22.995 55.475 22.75C55.195 22.505 54.95 22.47 54.95 22.68Z" fill="black"/>
<path d="M56.42 24.395C56.49 24.57 57.155 25.935 57.925 27.44C59.255 30.135 59.325 30.38 59.325 33.565C59.325 36.505 59.185 37.205 58.345 38.99C56.98 41.895 55.125 44.24 52.675 46.095C48.195 49.49 42.735 51.345 36.155 51.695C33.88 51.8 32.2 52.045 32.2 52.255C32.2 52.815 40.11 52.255 43.05 51.485C46.41 50.575 48.615 49.63 51.45 47.775C58.31 43.33 61.39 36.645 59.675 29.925C59.115 27.825 57.155 24.15 56.595 24.15C56.42 24.15 56.35 24.255 56.42 24.395Z" fill="black"/>
<path d="M29.4 29.75V31.5H30.8H32.2V37.1V42.7H30.45H28.7V44.45V46.2H35.35H42V44.45V42.7H40.25H38.5V35.35V28H33.95H29.4V29.75ZM37.87 35.945L37.975 43.225L39.655 43.33C41.23 43.435 41.3 43.505 41.3 44.485V45.5H35.35H29.4V44.485C29.4 43.505 29.47 43.435 31.08 43.33L32.725 43.225V37.1V30.975L31.43 30.87C30.205 30.765 30.1 30.66 30.1 29.715V28.7H33.95H37.8L37.87 35.945Z" fill="black"/>
</svg>
