<?xml version="1.0" standalone="no"?>
<!DOCTYPE svg PUBLIC "-//W3C//DTD SVG 20010904//EN"
 "http://www.w3.org/TR/2001/REC-SVG-20010904/DTD/svg10.dtd">
<svg version="1.0" xmlns="http://www.w3.org/2000/svg"
 width="200.000000pt" height="200.000000pt" viewBox="0 0 200.000000 200.000000"
 preserveAspectRatio="xMidYMid meet">

<g transform="translate(0.000000,200.000000) scale(0.100000,-0.100000)"
fill="#000000" stroke="none">
<path d="M1275 1400 l-80 -80 100 -100 99 -100 -614 -2 -615 -3 0 -115 0 -115
615 -3 614 -2 -99 -100 -100 -100 83 -83 82 -82 242 243 243 242 -240 240
c-132 132 -242 240 -245 240 -3 0 -41 -36 -85 -80z m305 -185 l215 -215 -218
-217 -217 -218 -57 58 -58 57 109 109 c62 63 106 114 102 120 -5 8 -186 11
-632 11 l-624 0 0 80 0 80 624 0 c446 0 627 3 632 11 4 6 -40 57 -102 120
l-108 109 54 55 c30 30 57 55 60 55 3 0 102 -97 220 -215z"/>
<path d="M1370 1312 c0 -14 109 -116 117 -109 4 4 -18 32 -47 62 -52 52 -70
65 -70 47z"/>
<path d="M1550 1132 c0 -14 59 -66 67 -59 3 4 -6 21 -22 37 -28 30 -45 38 -45
22z"/>
<path d="M1650 1032 c0 -14 39 -46 47 -39 3 4 -2 16 -12 27 -19 21 -35 26 -35
12z"/>
<path d="M1480 805 c-63 -63 -111 -118 -107 -122 8 -7 237 215 237 229 0 19
-23 1 -130 -107z"/>
</g>
</svg>
