<svg width="40" height="40" viewBox="0 0 40 40" fill="none" xmlns="http://www.w3.org/2000/svg">
<path d="M16.18 4.97995C15.74 5.43995 15.6 5.75995 15.6 6.35995V7.15995L13.24 7.21995C11.04 7.29995 10.82 7.33995 10.02 7.85995C8.75999 8.69995 8.39999 9.61995 8.39999 12.1999V14.3199L9.39999 15.2999C10.4 16.2999 10.74 17.1999 10.1 17.1999C9.91999 17.1999 9.55999 17.4199 9.29999 17.6999C8.81999 18.1599 8.79999 18.32 8.79999 20.38V22.56L9.41999 23.08C9.75999 23.36 10.12 23.6 10.22 23.6C10.32 23.6 10.4 25.32 10.4 27.7C10.4 30.96 10.46 31.96 10.7 32.56C11.14 33.58 11.74 34.18 12.9 34.72C13.88 35.18 14 35.2 20.02 35.2H26.16L27.22 34.64C27.9 34.3 28.52 33.76 28.9 33.22L29.5 32.36L29.56 28C29.62 23.88 29.64 23.6199 30 23.4999C30.22 23.4399 30.58 23.14 30.8 22.86C31.14 22.42 31.2 22.0599 31.2 20.2599C31.2 18.3199 31.16 18.1399 30.7 17.6999C30.44 17.4199 30.08 17.1999 29.9 17.1999C29.26 17.1999 29.6 16.2999 30.6 15.2999L31.6 14.3199V12.1999C31.6 9.61995 31.24 8.69995 29.98 7.85995C29.18 7.33995 28.96 7.29995 26.76 7.21995L24.4 7.15995V6.35995C24.4 5.75995 24.26 5.43995 23.82 4.97995L23.24 4.39995H20H16.76L16.18 4.97995ZM23.08 5.59995C23.24 5.75995 23.42 6.19995 23.5 6.53995L23.64 7.19995H20.02C18.02 7.19995 16.4 7.11995 16.4 7.01995C16.4 6.49995 16.9 5.53995 17.28 5.37995C17.5 5.29995 18.84 5.21995 20.24 5.25995C22.2 5.27995 22.86 5.35995 23.08 5.59995ZM28.88 8.49995C29.88 8.99995 30.4 9.71995 30.54 10.76L30.66 11.5999H20.02C9.53999 11.5999 9.39999 11.5999 9.39999 11.1999C9.39999 10.7999 9.53999 10.7999 19.6 10.7999C26.26 10.7999 29.8 10.7399 29.8 10.5999C29.8 10.4599 26.3 10.3999 19.7 10.3999C8.73999 10.3999 9.13999 10.4399 10.02 9.31995C10.98 8.09995 11.64 8.01995 20.7 8.05995C27.66 8.09995 28.14 8.11995 28.88 8.49995ZM30.8 12.7999C30.8 13.1999 30.66 13.1999 20 13.1999C9.33999 13.1999 9.19999 13.1999 9.19999 12.7999C9.19999 12.3999 9.33999 12.3999 20 12.3999C30.66 12.3999 30.8 12.3999 30.8 12.7999ZM29.86 14.6399L28.82 15.7L28.76 23.6C28.7 30.72 28.66 31.56 28.34 32.16L27.98 32.8H20H12.02L11.66 32.14C11.34 31.56 11.3 30.72 11.24 23.6L11.18 15.7L10.14 14.6399L9.11999 13.6H20H30.88L29.86 14.6399ZM27.4 33.32C27.4 33.38 26.98 33.62 26.46 33.86C25.54 34.28 25.24 34.3 20 34.3C14.76 34.3 14.46 34.28 13.56 33.86C13.02 33.62 12.6 33.38 12.6 33.32C12.6 33.26 15.94 33.2 20 33.2C24.08 33.2 27.4 33.26 27.4 33.32Z" fill="black"/>
<path d="M13.24 15.3199C12.8 15.6199 12.8 15.6799 12.8 20.7199C12.8 23.9799 12.88 25.7999 13 25.7999C13.12 25.7999 13.2 24.0999 13.2 21.1199C13.2 16.7399 13.22 16.4199 13.6 15.9799L14 15.4999L14.4 15.9799C14.78 16.4199 14.8 16.7399 14.8 23.1399C14.8 27.3599 14.72 29.9599 14.6 30.2199C14.32 30.7199 13.68 30.7199 13.4 30.2199C13.3 29.9999 13.2 29.4599 13.2 29.0199C13.2 28.5599 13.1 28.1999 13 28.1999C12.86 28.1999 12.8 28.6999 12.84 29.5399C12.9 30.8199 12.94 30.8999 13.46 31.0799C13.8 31.1999 14.2 31.1999 14.56 31.0799L15.1 30.8999L15.16 23.2999C15.2 15.7599 15.2 15.6999 14.78 15.3399C14.26 14.9199 13.82 14.8999 13.24 15.3199Z" fill="black"/>
<path d="M17.04 15.4399C16.7 15.7799 16.7 30.62 17.04 30.96C17.36 31.28 18.64 31.28 18.96 30.96C19.3 30.62 19.3 15.7799 18.96 15.4399C18.64 15.1199 17.36 15.1199 17.04 15.4399ZM18.6 16.1799C18.88 16.7199 18.88 29.68 18.6 30.22C18.48 30.42 18.22 30.6 18 30.6C17.78 30.6 17.52 30.42 17.4 30.22C17.28 29.96 17.2 27.38 17.2 23.1999C17.2 19.0199 17.28 16.4399 17.4 16.1799C17.52 15.9799 17.78 15.7999 18 15.7999C18.22 15.7999 18.48 15.9799 18.6 16.1799Z" fill="black"/>
<path d="M21.04 15.4399C20.7 15.7799 20.7 30.62 21.04 30.96C21.36 31.28 22.64 31.28 22.96 30.96C23.3 30.62 23.3 15.7799 22.96 15.4399C22.64 15.1199 21.36 15.1199 21.04 15.4399ZM22.6 16.1799C22.88 16.7199 22.88 29.68 22.6 30.22C22.48 30.42 22.22 30.6 22 30.6C21.78 30.6 21.52 30.42 21.4 30.22C21.28 29.96 21.2 27.38 21.2 23.1999C21.2 19.0199 21.28 16.4399 21.4 16.1799C21.52 15.9799 21.78 15.7999 22 15.7999C22.22 15.7999 22.48 15.9799 22.6 16.1799Z" fill="black"/>
<path d="M25.04 15.4399C24.7 15.7799 24.7 30.62 25.04 30.96C25.36 31.28 26.64 31.28 26.96 30.96C27.3 30.62 27.3 15.7799 26.96 15.4399C26.64 15.1199 25.36 15.1199 25.04 15.4399ZM26.6 16.1799C26.72 16.4399 26.8 19.0199 26.8 23.1999C26.8 27.38 26.72 29.96 26.6 30.22C26.48 30.42 26.22 30.6 26 30.6C25.78 30.6 25.52 30.42 25.4 30.22C25.28 29.96 25.2 27.38 25.2 23.1999C25.2 19.0199 25.28 16.4399 25.4 16.1799C25.52 15.9799 25.78 15.7999 26 15.7999C26.22 15.7999 26.48 15.9799 26.6 16.1799Z" fill="black"/>
</svg>
