<svg width="34" height="34" viewBox="0 0 34 34" fill="none" xmlns="http://www.w3.org/2000/svg">
<circle cx="17" cy="17" r="17" fill="#FFB27D"/>
<path fill-rule="evenodd" clip-rule="evenodd" d="M21.875 8.22509C23.6486 7.97363 24.3737 8.72363 24.05 10.4751C21.1899 13.5467 18.365 16.6467 15.575 19.7751C15.775 20.0751 16.025 20.3251 16.325 20.5251C20.1518 16.4235 24.0017 12.3485 27.875 8.30009C29.6499 7.97508 30.375 8.70009 30.05 10.4751C25.8266 15.1984 21.5016 19.8234 17.075 24.3501C16.575 24.4501 16.075 24.4501 15.575 24.3501C14.8558 23.6061 14.1058 22.8811 13.325 22.1751C12.5442 22.8811 11.7942 23.6061 11.075 24.3501C10.575 24.4501 10.075 24.4501 9.57499 24.3501C7.54876 22.4238 5.62377 20.3988 3.79999 18.2751C3.47499 16.5001 4.2 15.7751 5.97499 16.1001C7.42129 17.4966 8.82129 18.9465 10.175 20.4501C10.5651 20.3899 10.8651 20.1649 11.075 19.7751C10.6219 19.2972 10.1969 18.7971 9.79999 18.2751C9.47499 16.5001 10.2 15.7751 11.975 16.1001C12.4145 16.4977 12.8395 16.9227 13.25 17.3751C16.1091 14.2915 18.9842 11.2415 21.875 8.22509ZM22.175 8.97509C23.15 8.82489 23.525 9.22488 23.3 10.1751C19.125 14.6501 14.95 19.1251 10.775 23.6001C10.475 23.7001 10.175 23.7001 9.87499 23.6001C8.1 21.7251 6.32499 19.8501 4.54999 17.9751C4.32499 17.0001 4.69999 16.6251 5.67499 16.8501C7.07499 18.3501 8.475 19.8501 9.87499 21.3501C10.0638 21.4974 10.2638 21.5473 10.475 21.5001C14.4608 17.3898 18.3608 13.2148 22.175 8.97509ZM28.175 8.97509C29.15 8.82489 29.525 9.22488 29.3 10.1751C25.125 14.6501 20.9499 19.1251 16.775 23.6001C16.475 23.7001 16.175 23.7001 15.875 23.6001C15.0556 22.936 14.4306 22.161 14 21.2751C14.3025 20.9475 14.6275 20.6475 14.975 20.3751C15.3535 20.6286 15.6535 20.9536 15.875 21.3501C16.0638 21.4974 16.2638 21.5473 16.475 21.5001C20.4608 17.3898 24.3608 13.2148 28.175 8.97509ZM10.775 16.7751C11.6413 16.7858 12.2913 17.1858 12.725 17.9751C12.425 18.3751 12.075 18.7251 11.675 19.0251C11.2774 18.7026 10.9024 18.3526 10.55 17.9751C10.4164 17.5254 10.4914 17.1255 10.775 16.7751Z" fill="#6C2E00"/>
<path fill-rule="evenodd" clip-rule="evenodd" d="M27.875 10.325C28.025 10.325 28.175 10.325 28.325 10.325C28.3749 10.775 28.175 10.9749 27.725 10.925C27.7149 10.7061 27.7649 10.5061 27.875 10.325Z" fill="#6C2E00"/>
<path fill-rule="evenodd" clip-rule="evenodd" d="M26.975 11.2251C27.125 11.2251 27.275 11.2251 27.425 11.2251C27.3007 11.7757 26.9756 12.1757 26.45 12.4251C26.375 12.3751 26.3 12.3251 26.225 12.2751C26.5133 11.9471 26.7632 11.5971 26.975 11.2251Z" fill="#6C2E00"/>
<path fill-rule="evenodd" clip-rule="evenodd" d="M25.775 12.575C26.0516 12.6805 26.1266 12.8805 26 13.175C22.8751 16.5 19.75 19.8249 16.625 23.15C16.425 23.25 16.225 23.25 16.025 23.15C15.55 22.6749 15.075 22.2 14.6 21.725C14.4829 21.5084 14.5079 21.3084 14.675 21.125C15.1977 21.5726 15.6977 22.0476 16.175 22.55C16.275 22.65 16.375 22.65 16.475 22.55C19.6058 19.2446 22.7059 15.9195 25.775 12.575Z" fill="#6C2E00"/>
<path fill-rule="evenodd" clip-rule="evenodd" d="M18.725 13.625C18.875 13.625 19.025 13.625 19.175 13.625C19.1974 13.7828 19.1725 13.9328 19.1 14.075C16.8491 16.6257 14.4992 19.0757 12.05 21.425C11.975 21.3751 11.9 21.325 11.825 21.275C12.0789 20.9962 12.3039 20.6962 12.5 20.375C14.6611 18.1895 16.7361 15.9395 18.725 13.625Z" fill="#6C2E00"/>
<path fill-rule="evenodd" clip-rule="evenodd" d="M11.375 21.575C11.6516 21.6806 11.7266 21.8805 11.6 22.175C11.4483 22.3005 11.2733 22.3505 11.075 22.325C11.0587 22.0229 11.1587 21.773 11.375 21.575Z" fill="#6C2E00"/>
</svg>
