<svg width="40" height="40" viewBox="0 0 40 40" fill="none" xmlns="http://www.w3.org/2000/svg">
<path d="M24.1531 2C22.8257 2 21.9516 2.59382 21.4289 3.18359C21.148 3.50054 20.9696 3.81153 20.8586 4.03906C19.0543 4.15394 17.8037 4.54386 16.8711 5.13438C15.7522 5.84278 15.114 6.80771 14.4672 7.77813C13.6494 9.00479 11.7805 12.3756 11.7055 12.5109C11.5922 12.5544 11.433 12.6001 11.1602 12.8047C10.8033 13.0724 10.4 13.54 10.4 14.2C10.4 14.4958 10.5258 14.7136 10.6289 14.9445C9.52485 15.8216 8.8 17.2126 8.8 18.8C8.8 20.2948 9.44068 21.6198 10.4352 22.5039C10.4217 22.602 10.4 22.6953 10.4 22.8C10.4 23.6467 10.8445 24.3928 11.5109 24.8203C10.978 25.1064 10.5349 25.5175 10.1961 26C9.60212 26.846 9.32115 27.8927 9.24609 28.9039C8.52425 29.1431 8 29.8071 8 30.6C8 31.5894 8.81062 32.4 9.8 32.4H11.6828C11.7476 32.6461 11.8558 32.9724 12.0734 33.3445C12.4363 33.9651 13.1267 34.6211 14.2039 34.7633C14.2889 34.8921 14.6151 35.3567 15.2023 35.8094C15.209 35.8247 15.2165 35.8395 15.225 35.8539C15.225 35.8539 15.6 36.4951 15.6 37.6C15.5993 37.653 15.609 37.7056 15.6288 37.7548C15.6486 37.804 15.6779 37.8488 15.7151 37.8865C15.7524 37.9243 15.7967 37.9542 15.8456 37.9747C15.8945 37.9952 15.947 38.0057 16 38.0057C16.053 38.0057 16.1055 37.9952 16.1544 37.9747C16.2033 37.9542 16.2476 37.9243 16.2849 37.8865C16.3221 37.8488 16.3514 37.804 16.3712 37.7548C16.391 37.7056 16.4007 37.653 16.4 37.6C16.4 37.1465 16.34 36.7519 16.2633 36.425C16.7964 36.6462 17.437 36.8 18.2 36.8C21.6194 36.8 24.4 34.0194 24.4 30.6C24.4 27.1806 21.6194 24.4 18.2 24.4H13.2H12.8C12.689 24.4 12.581 24.3892 12.4766 24.368C11.8507 24.2404 11.3596 23.7493 11.232 23.1234C11.2108 23.019 11.2 22.911 11.2 22.8C11.2 22.7125 11.2116 22.6281 11.225 22.5445C11.2307 22.5119 11.2354 22.4798 11.243 22.4469C11.2438 22.4427 11.2446 22.4386 11.2453 22.4344C11.4105 21.7263 12.0404 21.2 12.8 21.2H15.5664C16.2677 22.8452 17.9004 24 19.8 24C22.3381 24 24.4 21.9381 24.4 19.4C24.4 16.8619 22.3381 14.8 19.8 14.8C18.4786 14.8 17.2903 15.3623 16.4508 16.2563C15.7075 15.1097 14.4993 14.4 13.2 14.4C12.5781 14.4 11.9675 14.5637 11.4141 14.8695C11.4125 14.8669 11.411 14.8643 11.4094 14.8617C11.2847 14.6678 11.2 14.4507 11.2 14.2C11.2 13.86 11.3967 13.6276 11.6398 13.4453C11.883 13.263 12.1266 13.1797 12.1266 13.1797C12.2216 13.1481 12.3013 13.082 12.35 12.9945C12.35 12.9945 14.3669 9.37067 15.1328 8.22188C15.7796 7.25149 16.3415 6.41655 17.2992 5.81016C18.257 5.20377 19.6461 4.8 22 4.8C24.0832 4.8 25.8015 5.27354 27.168 6.05156C27.0776 7.05618 26.8141 7.72578 26.8141 7.72578C26.8043 7.7502 26.7995 7.7763 26.7998 7.80259C26.8001 7.82888 26.8057 7.85485 26.816 7.87901C26.8264 7.90317 26.8414 7.92505 26.8603 7.9434C26.8791 7.96175 26.9014 7.97621 26.9258 7.98596C26.9502 7.99571 26.9763 8.00055 27.0026 8.00021C27.0289 7.99987 27.0548 7.99435 27.079 7.98398C27.1032 7.9736 27.125 7.95857 27.1434 7.93973C27.1617 7.9209 27.1762 7.89864 27.1859 7.87422C27.1859 7.87422 27.4352 7.23966 27.5461 6.28047C28.552 6.9263 29.3475 7.74493 29.9352 8.66172C29.6189 9.28519 29.2586 9.65859 29.2586 9.65859C29.2394 9.67702 29.2241 9.6991 29.2135 9.72352C29.203 9.74795 29.1974 9.77423 29.1971 9.80084C29.1969 9.82745 29.2019 9.85384 29.212 9.87848C29.222 9.90311 29.2369 9.92549 29.2557 9.9443C29.2745 9.96312 29.2969 9.97799 29.3215 9.98805C29.3462 9.99811 29.3726 10.0031 29.3992 10.0029C29.4258 10.0026 29.4521 9.99703 29.4765 9.98648C29.5009 9.97592 29.523 9.9606 29.5414 9.94141C29.5414 9.94141 29.8574 9.62634 30.1727 9.075C30.8548 10.2966 31.2 11.658 31.2 13C31.2 15.0183 30.7034 16.6594 30.0523 18.2484C30.0121 18.3467 30.0126 18.4568 30.0536 18.5547C30.0947 18.6526 30.1729 18.7301 30.2711 18.7703C30.3693 18.8105 30.4795 18.81 30.5773 18.769C30.6752 18.728 30.7528 18.6498 30.793 18.5516C31.4635 16.915 32 15.1505 32 13C32 11.3426 31.5158 9.65759 30.5609 8.20078C30.7001 7.78898 30.8 7.32201 30.8 6.8C30.8 5.86296 30.5396 4.96292 29.95 4.29297C29.3604 3.62302 28.4444 3.2 27.2 3.2C27.1077 3.2 27.0213 3.20515 26.9344 3.21016C26.8436 3.09123 26.7475 2.97782 26.6398 2.87578C26.0262 2.29399 25.159 2 24.1531 2ZM24.1531 2.4C25.0816 2.4 25.8379 2.6675 26.3641 3.16641C26.3962 3.19689 26.425 3.23101 26.4555 3.26328C25.8126 3.37538 25.3452 3.62228 25.0258 3.87422C24.8489 4.01377 24.7251 4.15093 24.6289 4.27109C23.8172 4.09683 22.9422 4 22 4C21.7651 4 21.5456 4.00711 21.3266 4.01484C21.4246 3.84368 21.5483 3.65137 21.7281 3.44844C22.1945 2.92221 22.943 2.4 24.1531 2.4ZM27.2 3.6C28.3556 3.6 29.1396 3.97698 29.65 4.55703C30.1604 5.13708 30.4 5.93704 30.4 6.8C30.4 7.15583 30.3493 7.48567 30.2711 7.7875C29.5829 6.85886 28.6913 6.04065 27.6 5.40391C27.6 5.40256 27.6 5.40135 27.6 5.4C27.6 4.70311 27.4536 4.0992 27.1867 3.60078C27.1913 3.60077 27.1954 3.6 27.2 3.6ZM26.7406 3.62734C27.0027 4.03825 27.1608 4.55404 27.1914 5.17812C26.5475 4.84432 25.8383 4.57363 25.068 4.375C25.127 4.31541 25.1926 4.25268 25.2742 4.18828C25.5791 3.9478 26.0463 3.70468 26.7406 3.62734ZM13.2 14.8C14.3909 14.8 15.5083 15.4719 16.1773 16.5734C15.5672 17.354 15.2 18.3338 15.2 19.4C15.2 19.8882 15.2775 20.3583 15.4188 20.8H12.8C12.0026 20.8 11.3177 21.2734 10.9969 21.9508C10.1553 21.2232 9.6 20.0904 9.6 18.8C9.6 17.3581 10.2894 16.1078 11.3008 15.407C11.301 15.407 11.3013 15.407 11.3016 15.407C11.8753 15.0091 12.5313 14.8 13.2 14.8ZM19.8 15.2C22.122 15.2 24 17.078 24 19.4C24 21.722 22.122 23.6 19.8 23.6C17.478 23.6 15.6 21.722 15.6 19.4C15.6 18.3275 16.0041 17.3527 16.6641 16.6109L16.6656 16.6102V16.6094C17.4345 15.7462 18.5513 15.2 19.8 15.2ZM28.1938 17.6C28.1619 17.601 28.1307 17.6096 28.1029 17.6251C28.075 17.6406 28.0513 17.6625 28.0336 17.6891L25.6336 21.2891C25.6185 21.3109 25.608 21.3355 25.6025 21.3615C25.5971 21.3875 25.5968 21.4142 25.6018 21.4403C25.6068 21.4663 25.617 21.4911 25.6316 21.5132C25.6463 21.5354 25.6652 21.5543 25.6873 21.569C25.7094 21.5837 25.7342 21.5939 25.7602 21.599C25.7863 21.604 25.8131 21.6038 25.839 21.5984C25.865 21.593 25.8896 21.5825 25.9115 21.5675C25.9334 21.5525 25.952 21.5332 25.9664 21.5109L28 18.4609V21.8C28 21.8383 28.011 21.8757 28.0317 21.908C28.0524 21.9402 28.0818 21.9658 28.1166 21.9817C28.1514 21.9977 28.1901 22.0033 28.228 21.998C28.2659 21.9926 28.3015 21.9765 28.3305 21.9516L28.5008 21.8055C28.3102 22.2678 28.1279 22.7353 27.9672 23.2195C27.9584 23.2362 27.9509 23.2534 27.9445 23.2711C27.77 23.2264 27.5882 23.2 27.4 23.2C26.6833 23.2 26.1208 23.476 25.7508 23.8922C25.3808 24.3084 25.2 24.8556 25.2 25.4C25.2 25.9444 25.3808 26.4916 25.7508 26.9078C26.0854 27.2843 26.5787 27.5441 27.2 27.5906V27.6C27.2 31.7067 28.8344 35.3625 28.8344 35.3625C28.8557 35.4105 28.8863 35.4539 28.9244 35.4901C28.9625 35.5263 29.0073 35.5546 29.0564 35.5735C29.1054 35.5924 29.1577 35.6014 29.2102 35.6001C29.2628 35.5987 29.3145 35.5871 29.3625 35.5657C29.4106 35.5444 29.4539 35.5138 29.4901 35.4757C29.5263 35.4376 29.5546 35.3927 29.5735 35.3437C29.5924 35.2946 29.6014 35.2423 29.6 35.1898C29.5987 35.1373 29.587 35.0855 29.5656 35.0375C29.5656 35.0375 28.0978 31.6557 28.0242 27.8773C29.149 27.591 30 26.6104 30 25.4C30 24.4893 29.5275 23.6858 28.8148 23.2219C29.125 22.3325 29.4966 21.4796 29.8859 20.618L30.7453 19.8813L30.4016 22.9781C30.3969 23.005 30.3978 23.0326 30.4042 23.0591C30.4106 23.0857 30.4224 23.1106 30.4388 23.1325C30.4552 23.1543 30.4759 23.1725 30.4996 23.186C30.5233 23.1996 30.5496 23.2081 30.5767 23.2111C30.6039 23.2141 30.6313 23.2115 30.6574 23.2034C30.6835 23.1954 30.7077 23.1821 30.7285 23.1644C30.7493 23.1467 30.7662 23.1249 30.7782 23.1004C30.7902 23.0759 30.7971 23.0491 30.7984 23.0219L31.1984 19.4219C31.2027 19.382 31.195 19.3418 31.1761 19.3065C31.1573 19.2711 31.1283 19.2422 31.0929 19.2235C31.0574 19.2048 31.0172 19.1972 30.9774 19.2016C30.9375 19.2061 30.9 19.2224 30.8695 19.2484L28.4 21.3648V17.8C28.4 17.7732 28.3946 17.7467 28.3842 17.722C28.3738 17.6973 28.3585 17.675 28.3392 17.6563C28.32 17.6377 28.2972 17.6231 28.2722 17.6134C28.2472 17.6037 28.2205 17.5992 28.1938 17.6ZM11.6 18C11.3878 18 11.1843 18.0843 11.0343 18.2343C10.8843 18.3843 10.8 18.5878 10.8 18.8C10.8 19.0122 10.8843 19.2157 11.0343 19.3657C11.1843 19.5157 11.3878 19.6 11.6 19.6C11.8122 19.6 12.0157 19.5157 12.1657 19.3657C12.3157 19.2157 12.4 19.0122 12.4 18.8C12.4 18.5878 12.3157 18.3843 12.1657 18.2343C12.0157 18.0843 11.8122 18 11.6 18ZM20 18.8C19.7878 18.8 19.5843 18.8843 19.4343 19.0343C19.2843 19.1843 19.2 19.3878 19.2 19.6C19.2 19.8122 19.2843 20.0157 19.4343 20.1657C19.5843 20.3157 19.7878 20.4 20 20.4C20.2122 20.4 20.4157 20.3157 20.5657 20.1657C20.7157 20.0157 20.8 19.8122 20.8 19.6C20.8 19.3878 20.7157 19.1843 20.5657 19.0343C20.4157 18.8843 20.2122 18.8 20 18.8ZM27.4 23.6C27.7492 23.6 28.0721 23.7032 28.3477 23.8742C28.3978 23.9054 28.4447 23.9408 28.4914 23.9766C28.5355 24.0103 28.5789 24.0444 28.6195 24.082C28.6537 24.1135 28.6863 24.1465 28.718 24.1805C28.7603 24.2262 28.7993 24.2743 28.8367 24.3242C28.859 24.3538 28.8835 24.3816 28.9039 24.4125C28.9573 24.4939 29.0039 24.5804 29.0438 24.6703C29.0564 24.6987 29.0654 24.7287 29.0766 24.7578C29.1046 24.8312 29.1285 24.9067 29.1469 24.9844C29.1539 25.0139 29.1617 25.0434 29.1672 25.0734C29.1866 25.1797 29.2 25.288 29.2 25.4C29.2 25.5219 29.187 25.6405 29.1641 25.7555C29.1577 25.7876 29.1448 25.817 29.1367 25.8484C29.1159 25.9295 29.0947 26.0105 29.0633 26.0867C29.0487 26.1222 29.0285 26.154 29.0117 26.1883C28.9789 26.2555 28.9461 26.323 28.9055 26.3852C28.8813 26.422 28.8517 26.4549 28.825 26.4898C28.7836 26.5439 28.7425 26.5979 28.6953 26.6469C28.661 26.6825 28.6223 26.7134 28.5852 26.7461C28.5404 26.7855 28.4963 26.8253 28.4477 26.8602C28.4022 26.8927 28.3532 26.9202 28.3047 26.9484C28.2559 26.9769 28.2071 27.0058 28.1555 27.0297C28.1054 27.0528 28.0532 27.0713 28.0008 27.0898C27.9457 27.1094 27.8902 27.128 27.8328 27.1422C27.7763 27.1561 27.7179 27.165 27.6594 27.1734C27.5739 27.1858 27.4889 27.2 27.4 27.2C26.7833 27.2 26.3459 26.976 26.0492 26.6422C25.7525 26.3084 25.6 25.8556 25.6 25.4C25.6 24.9444 25.7525 24.4916 26.0492 24.1578C26.3459 23.824 26.7833 23.6 27.4 23.6ZM27.3977 24.3977C27.3497 24.3979 27.3034 24.4154 27.2672 24.4469C27.0519 24.4749 26.8456 24.5221 26.7172 24.6406C26.5578 24.7878 26.4751 24.9762 26.4313 25.1516C26.3436 25.5023 26.4023 25.8328 26.4023 25.8328C26.4067 25.8588 26.416 25.8836 26.4299 25.906C26.4439 25.9283 26.462 25.9477 26.4834 25.963C26.5048 25.9783 26.529 25.9892 26.5547 25.9952C26.5803 26.0011 26.6069 26.002 26.6328 25.9977C26.6588 25.9934 26.6836 25.984 26.706 25.9701C26.7283 25.9562 26.7477 25.938 26.763 25.9166C26.7783 25.8952 26.7892 25.871 26.7952 25.8453C26.8011 25.8197 26.802 25.7931 26.7977 25.7672C26.7977 25.7672 26.7564 25.4977 26.8188 25.2484C26.8499 25.1238 26.9047 25.0122 26.9891 24.9344C27.0544 24.874 27.175 24.8488 27.3078 24.8305C27.3334 24.863 27.3526 24.8706 27.4141 25.0242C27.5038 25.2486 27.6 25.6222 27.6 26.2C27.5996 26.2265 27.6045 26.2528 27.6144 26.2774C27.6243 26.302 27.639 26.3244 27.6576 26.3433C27.6762 26.3621 27.6984 26.3771 27.7228 26.3874C27.7473 26.3976 27.7735 26.4028 27.8 26.4028C27.8265 26.4028 27.8527 26.3976 27.8772 26.3874C27.9016 26.3771 27.9238 26.3621 27.9424 26.3433C27.961 26.3244 27.9757 26.302 27.9856 26.2774C27.9955 26.2528 28.0004 26.2265 28 26.2C28 25.5998 27.8995 25.1989 27.7938 24.9227C27.8194 24.9384 27.8799 24.9402 27.9 24.9563C27.9945 25.0319 28.0211 25.0891 28.0211 25.0891C28.0321 25.1137 28.048 25.1358 28.0678 25.1541C28.0875 25.1725 28.1108 25.1866 28.1362 25.1957C28.1616 25.2048 28.1885 25.2087 28.2155 25.2071C28.2424 25.2055 28.2687 25.1985 28.2928 25.1865C28.317 25.1744 28.3384 25.1577 28.3559 25.1372C28.3734 25.1166 28.3866 25.0928 28.3946 25.0671C28.4026 25.0413 28.4054 25.0142 28.4027 24.9874C28.4 24.9606 28.3919 24.9346 28.3789 24.9109C28.3789 24.9109 28.3055 24.7681 28.15 24.6438C28.019 24.5389 27.7832 24.4676 27.518 24.4383C27.4833 24.412 27.4411 24.3978 27.3977 24.3977ZM13.2 25.2H18.2C21.187 25.2 23.6 27.613 23.6 30.6C23.6 33.587 21.187 36 18.2 36C15.8051 36 14.743 34.1945 14.743 34.1945C14.7101 34.1395 14.6645 34.0932 14.61 34.0595C14.5554 34.0257 14.4936 34.0056 14.4297 34.0008C13.5297 33.9346 13.0607 33.4479 12.7641 32.9406C12.4907 32.4732 12.419 32.0604 12.4078 31.9922C14.6875 31.9711 16.3226 31.791 17.3797 31.6039C18.2361 31.4523 18.6375 31.3255 18.8273 31.2602C18.9275 31.508 19 31.8123 19 32.2C18.9996 32.2265 19.0045 32.2528 19.0144 32.2774C19.0243 32.302 19.039 32.3244 19.0576 32.3433C19.0762 32.3621 19.0984 32.3771 19.1228 32.3874C19.1473 32.3976 19.1735 32.4028 19.2 32.4028C19.2265 32.4028 19.2527 32.3976 19.2772 32.3874C19.3016 32.3771 19.3238 32.3621 19.3424 32.3433C19.361 32.3244 19.3757 32.302 19.3856 32.2774C19.3955 32.2528 19.4004 32.2265 19.4 32.2C19.4 31.4056 19.1306 30.8555 18.8563 30.5125C18.5819 30.1695 18.2891 30.0211 18.2891 30.0211C18.2594 30.0056 18.2264 29.9978 18.193 29.9984C18.148 29.9994 18.1046 30.0155 18.0699 30.0441C18.0351 30.0727 18.0111 30.1123 18.0016 30.1563C17.9921 30.2003 17.9978 30.2462 18.0176 30.2866C18.0374 30.327 18.0703 30.3595 18.1109 30.3789C18.1109 30.3789 18.3181 30.4805 18.5438 30.7625C18.5759 30.8027 18.6066 30.855 18.6383 30.9023C18.4302 30.9705 18.067 31.0762 17.3102 31.2102C16.2127 31.4044 14.4895 31.6 12 31.6H9.8C9.24298 31.6 8.8 31.157 8.8 30.6C8.8 30.0871 9.17286 29.6625 9.65469 29.5961C9.74827 29.5832 9.83428 29.5376 9.89748 29.4674C9.96068 29.3972 9.997 29.3069 10 29.2125C10.0297 28.2545 10.317 27.2207 10.8516 26.4594C11.3861 25.698 12.1303 25.2 13.2 25.2Z" fill="black"/>
</svg>
