<svg width="70" height="70" viewBox="0 0 70 70" fill="none" xmlns="http://www.w3.org/2000/svg">
<path d="M31.465 7.28002C27.965 9.10002 26.425 13.16 27.93 16.555L28.63 18.165L22.54 18.27L16.45 18.375L15.33 19.53L14.175 20.65L14.07 27.545C14 31.43 14.105 34.545 14.28 34.72C14.49 34.93 15.12 34.685 15.925 34.16C18.235 32.585 20.86 32.55 23.135 34.055C24.57 35 25.9 37.485 25.9 39.2C25.9 40.915 24.57 43.4 23.135 44.345C20.86 45.85 18.235 45.815 15.925 44.24C15.12 43.715 14.49 43.47 14.28 43.68C14.105 43.855 14 46.97 14.07 50.855L14.175 57.75L15.33 58.87L16.45 60.025H35H53.55L54.67 58.87L55.825 57.75V39.2V20.65L54.67 19.53L53.55 18.375L47.46 18.27L41.37 18.165L42.035 16.695C43.68 13.055 41.895 8.75002 37.975 6.96502C35.91 6.02002 33.67 6.12502 31.465 7.28002ZM37.8 8.47002C41.3 10.255 42.28 14.35 40.075 17.675C39.585 18.375 39.27 19.11 39.375 19.285C39.515 19.46 42.525 19.6 46.235 19.6C52.815 19.6 52.885 19.6 53.725 20.475L54.6 21.315V39.2V57.085L53.725 57.925L52.885 58.8H35H17.115L16.275 57.925C15.4 57.085 15.4 56.98 15.4 51.31V45.535L16.905 46.2C20.545 47.88 24.85 46.095 26.635 42.175C29.4 36.155 22.89 29.47 16.905 32.2L15.4 32.865V27.09C15.4 19.145 14.91 19.6 23.765 19.6C27.475 19.6 30.485 19.46 30.625 19.285C30.73 19.11 30.415 18.375 29.925 17.675C27.72 14.35 28.7 10.255 32.2 8.47002C33.04 8.05002 34.3 7.70002 35 7.70002C35.7 7.70002 36.96 8.05002 37.8 8.47002Z" fill="black"/>
<path d="M33.425 10.15C33.04 10.29 32.34 10.85 31.85 11.375C30.625 12.67 30.59 15.365 31.815 16.52C32.725 17.395 32.725 17.465 31.745 15.015C31.045 13.23 32.305 11.025 34.3 10.605C34.895 10.5 35.35 10.29 35.35 10.115C35.35 9.73004 34.37 9.73004 33.425 10.15Z" fill="black"/>
<path d="M38.29 14.77C38.08 15.4 37.765 16.24 37.625 16.625C37.345 17.325 37.345 17.325 38.08 16.625C38.85 15.89 39.515 13.65 38.99 13.65C38.815 13.65 38.5 14.175 38.29 14.77Z" fill="black"/>
<path d="M47.6 22.05C47.6 22.26 48.475 22.4 49.7 22.4H51.8V23.45C51.8 24.01 51.975 24.5 52.185 24.5C52.395 24.5 52.5 23.94 52.43 23.17L52.325 21.875L49.98 21.77C48.475 21.7 47.6 21.805 47.6 22.05Z" fill="black"/>
<path d="M51.8 26.6C51.8 27.37 51.975 28 52.15 28C52.36 28 52.5 27.37 52.5 26.6C52.5 25.83 52.36 25.2 52.15 25.2C51.975 25.2 51.8 25.83 51.8 26.6Z" fill="black"/>
<path d="M51.8 30.1C51.8 30.485 51.975 30.8 52.15 30.8C52.36 30.8 52.5 30.485 52.5 30.1C52.5 29.715 52.36 29.4 52.15 29.4C51.975 29.4 51.8 29.715 51.8 30.1Z" fill="black"/>
<path d="M51.8 42.35C51.8 48.895 51.94 52.5 52.15 52.5C52.36 52.5 52.5 48.895 52.5 42.35C52.5 35.805 52.36 32.2 52.15 32.2C51.94 32.2 51.8 35.805 51.8 42.35Z" fill="black"/>
<path d="M28 56.35C28 56.56 30.905 56.7 36.05 56.7C41.195 56.7 44.1 56.56 44.1 56.35C44.1 56.14 41.195 56 36.05 56C30.905 56 28 56.14 28 56.35Z" fill="black"/>
<path d="M46.2 56.35C46.2 56.56 47.145 56.7 48.3 56.7C49.455 56.7 50.4 56.56 50.4 56.35C50.4 56.14 49.455 56 48.3 56C47.145 56 46.2 56.14 46.2 56.35Z" fill="black"/>
</svg>
