<svg width="40" height="40" viewBox="0 0 40 40" fill="none" xmlns="http://www.w3.org/2000/svg">
<path d="M16.5 6.32C15.84 6.48 14.54 6.98 13.6 7.44C12.22 8.12 11.56 8.62 10.1 10.1C7.18 13 6 15.84 6 20C6 22.6 6.36 24.2 7.44 26.4C8.12 27.78 8.62 28.44 10.1 29.9C13 32.82 15.84 34 20 34C22.6 34 24.2 33.64 26.4 32.56C27.78 31.88 28.44 31.38 29.9 29.9C32.82 27 34 24.16 34 20C34 17.4 33.64 15.8 32.56 13.6C31.88 12.22 31.38 11.56 29.9 10.1C26.96 7.14 24.14 6 19.9 6.02C18.7 6.02 17.16 6.16 16.5 6.32ZM23.1 7.32C26.64 8.16 30 10.82 31.58 14.04C32.66 16.22 33 17.68 33 20C33 23.62 31.74 26.66 29.2 29.2C26.66 31.74 23.58 33.02 20 33.02C16.38 33.02 13.36 31.76 10.8 29.2C8.24 26.64 7 23.64 7 20C7 16.38 8.24 13.36 10.76 10.84C14.1 7.5 18.54 6.24 23.1 7.32Z" fill="black"/>
<path d="M16.92 8.69997C13.04 9.77997 9.74 13.1 8.7 17C8.32 18.42 8.32 21.58 8.7 23C9.74 26.94 13.06 30.26 17 31.3C18.38 31.68 21.58 31.68 22.94 31.32C24.22 30.98 25.94 30.2 26.6 29.64C27.46 28.94 26.62 28.88 25.48 29.58C24.94 29.9 24.3 30.22 24.06 30.3C23.6 30.42 23.6 30.42 23.6 28.26C23.6 26.46 23.54 26 23.2 25.44L22.8 24.8H23.46C24.28 24.8 25.72 24.14 26.48 23.44C28.08 21.94 28.48 19.16 27.4 17.1C27.02 16.36 26.8 15.66 26.8 15.12C26.8 14.68 26.74 13.96 26.68 13.54C26.56 12.84 26.52 12.8 25.76 12.8C24.96 12.8 23.26 13.54 22.82 14.08C22.6 14.34 22.1 14.4 20.26 14.4C18.14 14.4 17.92 14.36 17.32 13.9C16.44 13.24 15.34 12.8 14.54 12.8C13.92 12.8 13.84 12.88 13.72 13.42C13.66 13.76 13.6 14.4 13.6 14.84C13.6 15.36 13.44 15.84 13.1 16.28C11.48 18.42 11.66 21.7 13.52 23.44C14.26 24.14 15.72 24.8 16.54 24.8H17.18L16.78 25.5C16.14 26.58 15.42 26.48 14.1 25.1C13.2 24.16 12.92 24 12.32 24C11.68 24 11.6 24.06 11.6 24.52C11.6 24.8 11.78 25.28 12.02 25.56C12.24 25.86 12.62 26.4 12.86 26.78C13.5 27.78 14.18 28.2 15.36 28.34L16.4 28.46V29.44C16.4 30.36 16.38 30.42 15.96 30.3C15.26 30.08 13.98 29.3 12.86 28.44C11.66 27.48 10.16 25.32 9.56 23.7C9.04 22.2 8.84 19.22 9.2 17.62C9.98 14.06 12.84 10.82 16.3 9.55997C17.8 9.03997 20.78 8.83997 22.38 9.19997C25.04 9.77997 27.58 11.52 29.14 13.84C30.52 15.92 30.9 17.2 30.9 19.9C30.9 21.1 30.82 22.44 30.72 22.84C30.58 23.46 30.62 23.6 30.86 23.6C31.58 23.6 31.88 19.16 31.3 17C30.26 13.06 26.94 9.73997 23 8.69997C21.64 8.33997 18.26 8.33997 16.92 8.69997ZM16.56 14.2C17.4 14.8 17.42 14.8 20.2 14.8C22.98 14.8 23 14.8 23.84 14.2C24.32 13.88 24.98 13.54 25.32 13.48C26.06 13.34 26.2 13.64 26.2 15.44C26.2 16.06 26.3 16.64 26.42 16.72C26.88 17 27.4 18.52 27.4 19.6C27.4 20.92 26.92 22.06 25.98 22.94C25.14 23.74 24.22 24.12 22.76 24.3C22.12 24.38 21.6 24.52 21.6 24.62C21.6 24.72 21.88 25.06 22.22 25.36C22.94 26 23.18 26.94 23.2 29.04V30.58L22.46 30.78C21.48 31.06 18.52 31.06 17.56 30.8L16.82 30.58L16.76 29.24L16.7 27.9L15.66 27.78C14.36 27.62 13.96 27.32 13 25.86C12 24.36 12.38 24.2 13.6 25.6C14.48 26.6 14.6 26.66 15.66 26.76C16.72 26.84 16.8 26.82 16.98 26.36C17.08 26.08 17.44 25.64 17.78 25.34C18.12 25.06 18.4 24.74 18.4 24.64C18.4 24.54 17.88 24.38 17.26 24.3C15.14 24.04 13.72 23.12 12.98 21.5C12.26 19.94 12.64 17.52 13.78 16.52C14.1 16.24 14.2 15.9 14.2 15.22C14.2 13.64 14.36 13.34 15.08 13.48C15.42 13.54 16.08 13.88 16.56 14.2Z" fill="black"/>
</svg>
