<svg width="40" height="40" viewBox="0 0 40 40" fill="none" xmlns="http://www.w3.org/2000/svg">
<path d="M8.29765 0.799951C8.23897 0.800775 8.18119 0.814499 8.12841 0.84015C8.07563 0.865801 8.02914 0.902751 7.99223 0.948379C7.95533 0.994006 7.92891 1.0472 7.91486 1.10417C7.90081 1.16115 7.89947 1.22052 7.91093 1.27808L9.6578 10.0156L1.66874 8.62573C1.59022 8.612 1.50938 8.62205 1.4366 8.65457C1.36382 8.6871 1.30242 8.74064 1.26027 8.8083C1.21813 8.87597 1.19716 8.95469 1.20006 9.03435C1.20296 9.11402 1.2296 9.191 1.27656 9.25542L6.89843 16.9851L2.23515 18.3171C2.16819 18.3362 2.10739 18.3725 2.05874 18.4223C2.01009 18.4721 1.97529 18.5338 1.95777 18.6012C1.94025 18.6686 1.94063 18.7394 1.95886 18.8066C1.97709 18.8738 2.01254 18.935 2.06171 18.9843L6.94843 23.871L2.84921 26.946C2.78963 26.9908 2.74372 27.0512 2.71664 27.1206C2.68957 27.19 2.68241 27.2656 2.69597 27.3388C2.70953 27.4121 2.74327 27.4801 2.7934 27.5352C2.84352 27.5903 2.90804 27.6303 2.97968 27.6507L7.71171 29.0031L5.71718 32.6601C5.68178 32.7248 5.66493 32.7979 5.66848 32.8715C5.67203 32.9451 5.69585 33.0164 5.73731 33.0773C5.77876 33.1382 5.83625 33.1865 5.90342 33.2168C5.97059 33.2472 6.04484 33.2584 6.11796 33.2492L11.3523 32.5945C11.5173 33.0047 11.6998 33.3951 11.9047 33.7585C13.4656 36.5274 16.4721 38 19.3867 38C22.0711 38 24.7126 36.7148 26.0281 34.0406L28.6836 34.7289C28.7473 34.7453 28.8142 34.7458 28.8781 34.7302C28.9421 34.7147 29.0013 34.6836 29.0503 34.6397C29.0994 34.5958 29.1369 34.5405 29.1595 34.4786C29.182 34.4168 29.189 34.3503 29.1797 34.2851L28.8672 32.1007L33.2828 31.7609C33.3481 31.7557 33.4111 31.7346 33.4664 31.6995C33.5216 31.6643 33.5673 31.616 33.5996 31.559C33.6318 31.502 33.6496 31.438 33.6513 31.3725C33.653 31.307 33.6386 31.2422 33.6094 31.1835L31.5609 27.0859L35.2789 25.396C35.3433 25.3668 35.3988 25.321 35.4397 25.2633C35.4806 25.2057 35.5055 25.1382 35.5119 25.0678C35.5182 24.9973 35.5058 24.9265 35.4759 24.8624C35.4459 24.7983 35.3995 24.7434 35.3414 24.7031L31.0422 21.7265L36.7906 18.6828C36.8569 18.6477 36.9119 18.5946 36.9495 18.5298C36.9871 18.4649 37.0056 18.3908 37.0031 18.3158C37.0006 18.2409 36.9771 18.1682 36.9352 18.106C36.8934 18.0438 36.8349 17.9946 36.7664 17.964L30.4258 15.1453L33.9914 6.94448C34.0209 6.87661 34.0309 6.8019 34.0205 6.72865C34.01 6.65541 33.9794 6.5865 33.9321 6.52959C33.8849 6.47268 33.8227 6.42999 33.7526 6.40628C33.6826 6.38256 33.6073 6.37875 33.5352 6.39526L24.2976 8.52808L23.5961 1.16167C23.5888 1.08613 23.5603 1.01421 23.5137 0.954297C23.4671 0.894388 23.4044 0.848963 23.333 0.823326C23.2616 0.797688 23.1844 0.792895 23.1103 0.809506C23.0363 0.826117 22.9685 0.863447 22.9148 0.917138L17.1891 6.64292L8.52499 0.867139C8.45774 0.822287 8.37848 0.798863 8.29765 0.799951ZM8.88437 2.0687L17.018 7.49058C17.0949 7.54185 17.1872 7.56489 17.2792 7.55577C17.3713 7.54666 17.4573 7.50595 17.5226 7.44058L22.8805 2.08276L23.5445 9.05776C23.55 9.11447 23.5675 9.16935 23.5958 9.21875C23.6242 9.26815 23.6628 9.31092 23.709 9.3442C23.7552 9.37749 23.808 9.40051 23.8639 9.41175C23.9197 9.42298 23.9773 9.42215 24.0328 9.40933L32.9414 7.35308L29.5336 15.1906C29.4915 15.2874 29.4895 15.3969 29.5278 15.4952C29.5662 15.5936 29.6418 15.6728 29.7383 15.7156L35.6898 18.3601L30.0859 21.3273C30.0253 21.3595 29.974 21.4067 29.9369 21.4644C29.8998 21.5221 29.8782 21.5884 29.8741 21.6569C29.87 21.7254 29.8836 21.7938 29.9136 21.8555C29.9436 21.9172 29.9889 21.9702 30.0453 22.0093L34.3062 24.9593L30.8523 26.5296C30.8034 26.5519 30.7595 26.5838 30.7231 26.6234C30.6868 26.6631 30.6588 26.7096 30.6409 26.7603C30.6229 26.811 30.6154 26.8648 30.6187 26.9184C30.622 26.9721 30.6361 27.0245 30.6602 27.0726L32.6281 31.0085L28.3805 31.3359C28.3259 31.34 28.2727 31.3554 28.2243 31.3809C28.1758 31.4064 28.1332 31.4417 28.0989 31.4843C28.0646 31.527 28.0395 31.5763 28.025 31.6291C28.0106 31.6819 28.0071 31.7372 28.0148 31.7914L28.3023 33.8039L26.3492 33.2968C26.6307 32.5329 26.8691 31.7594 27.0695 30.982C27.2937 30.1124 27.4667 29.2381 27.6031 28.3656C28.955 28.1691 30 27.0044 30 25.6C30 24.3366 29.1564 23.2675 28.0016 22.9218C28.0015 22.9122 28.0016 22.9025 28.0016 22.8929C28.0006 22.5254 27.9944 22.1614 27.9844 21.8015C27.9843 21.7981 27.9845 21.7948 27.9844 21.7914C27.9742 21.4311 27.9594 21.0747 27.9414 20.7234C27.9232 20.3685 27.9015 20.0185 27.8766 19.6742C27.7769 18.2974 27.629 17.0097 27.4734 15.8531C27.2172 13.9482 26.2954 12.3341 25.0031 11.1C24.8187 10.9238 24.6268 10.7549 24.4281 10.5945C24.428 10.5944 24.4275 10.5946 24.4273 10.5945C24.2287 10.4341 24.0237 10.2816 23.8125 10.1375C23.8123 10.1373 23.8119 10.1376 23.8117 10.1375C23.6005 9.99337 23.3837 9.85692 23.1617 9.72964C23.1615 9.72952 23.1611 9.72975 23.1609 9.72964C22.9389 9.60238 22.7116 9.48332 22.4805 9.37339C22.4802 9.37329 22.4799 9.37349 22.4797 9.37339C22.2486 9.26348 22.0135 9.16232 21.775 9.07026C21.7748 9.07017 21.7744 9.07035 21.7742 9.07026C21.5357 8.97823 21.2941 8.89471 21.05 8.82105C21.0498 8.82097 21.0495 8.82112 21.0492 8.82105C20.8051 8.7474 20.559 8.6836 20.3109 8.62886C20.3107 8.6288 20.3104 8.62891 20.3101 8.62886C20.0621 8.57413 19.8128 8.52822 19.5625 8.49292C19.5622 8.49288 19.562 8.49296 19.5617 8.49292C19.3114 8.45764 19.0601 8.43247 18.8094 8.41714C18.8091 8.41712 18.8088 8.41715 18.8086 8.41714C16.8004 8.2945 14.7809 8.82326 13.2148 10.1617C12.4318 10.8309 11.7687 11.7003 11.2773 12.7765C11.0931 13.1801 10.9331 13.6128 10.8 14.075C10.5781 14.8452 10.4306 15.697 10.3711 16.6328C10.3694 16.6461 10.3188 17.1051 10.2594 17.7296C10.2396 17.938 10.223 18.1046 10.2016 18.3664C10.1799 18.629 10.1625 18.9371 10.1414 19.2476C10.1165 19.6147 10.0923 19.9605 10.0719 20.3835C10.0621 20.5829 10.0526 20.7714 10.0445 20.9812C10.0404 21.0896 10.0372 21.1992 10.0336 21.3101C10.0245 21.5852 10.017 21.8625 10.0117 22.1515C10.011 22.1932 10.0093 22.2314 10.0086 22.2734C10.0074 22.3454 10.0087 22.4217 10.0078 22.4945C10.0061 22.6368 10.0029 22.7761 10.0023 22.921C8.84542 23.2653 7.99999 24.3352 7.99999 25.6C7.99999 26.9768 9.00371 28.1234 10.3172 28.3531C10.482 29.5701 10.7211 30.7516 11.0734 31.8234L6.79296 32.3585L8.6539 28.9476C8.68269 28.8949 8.69925 28.8364 8.70236 28.7765C8.70547 28.7165 8.69505 28.6566 8.67186 28.6013C8.64867 28.5459 8.61332 28.4964 8.56842 28.4566C8.52352 28.4167 8.47023 28.3875 8.41249 28.371L3.97421 27.1031L7.79765 24.2351C7.84355 24.2007 7.88151 24.1569 7.90898 24.1065C7.93645 24.0562 7.95277 24.0006 7.95685 23.9434C7.96092 23.8862 7.95265 23.8288 7.9326 23.775C7.91255 23.7213 7.88118 23.6725 7.84062 23.632L3.10781 18.8992L7.66796 17.5968C7.72975 17.5791 7.78635 17.5467 7.83297 17.5024C7.87959 17.4582 7.91486 17.4033 7.93578 17.3425C7.95671 17.2818 7.96268 17.2168 7.95318 17.1533C7.94369 17.0897 7.91901 17.0293 7.88124 16.9773L2.50468 9.58355L10.0961 10.9039C10.1601 10.915 10.226 10.9104 10.2878 10.8904C10.3497 10.8704 10.4058 10.8356 10.4512 10.7891C10.4966 10.7425 10.5299 10.6856 10.5484 10.6232C10.5668 10.5609 10.5698 10.495 10.557 10.4312L8.88437 2.0687ZM10.493 4.28276C10.4634 4.28402 10.4346 4.29179 10.4084 4.30554C10.3822 4.31929 10.3594 4.33866 10.3417 4.36227C10.3239 4.38588 10.3116 4.41313 10.3056 4.44207C10.2996 4.47101 10.3001 4.50091 10.307 4.52964L10.5601 5.62808C10.5654 5.65429 10.5758 5.67919 10.5908 5.7013C10.6059 5.72342 10.6252 5.7423 10.6476 5.75682C10.67 5.77135 10.6952 5.78124 10.7215 5.78589C10.7478 5.79054 10.7748 5.78988 10.8008 5.78392C10.8269 5.77797 10.8515 5.76685 10.8732 5.75123C10.8949 5.7356 10.9132 5.71579 10.9271 5.69296C10.941 5.67013 10.9502 5.64474 10.9542 5.6183C10.9581 5.59186 10.9567 5.5649 10.95 5.53901L10.6969 4.44058C10.687 4.39445 10.661 4.35331 10.6237 4.32443C10.5864 4.29555 10.5401 4.28079 10.493 4.28276V4.28276ZM11.0273 6.6062C10.9977 6.60743 10.9688 6.61522 10.9425 6.62901C10.9163 6.64281 10.8935 6.66226 10.8757 6.68596C10.8579 6.70966 10.8456 6.73701 10.8396 6.76605C10.8337 6.79509 10.8343 6.82508 10.8414 6.85386L11.4812 9.63667C11.4871 9.66227 11.498 9.68645 11.5133 9.70784C11.5285 9.72924 11.5478 9.74741 11.5701 9.76134C11.5924 9.77527 11.6172 9.78468 11.6431 9.78902C11.669 9.79337 11.6955 9.79257 11.7211 9.78667C11.7467 9.78077 11.7709 9.76989 11.7923 9.75464C11.8137 9.7394 11.8318 9.72009 11.8458 9.69781C11.8597 9.67554 11.8691 9.65075 11.8734 9.62484C11.8778 9.59893 11.877 9.57242 11.8711 9.54683L11.2312 6.76401C11.2213 6.71788 11.1954 6.67675 11.1581 6.64787C11.1208 6.61899 11.0745 6.60423 11.0273 6.6062V6.6062ZM18.0734 9.20151C18.3012 9.19677 18.5306 9.20156 18.7601 9.21558C20.1377 9.2997 21.5216 9.71933 22.7414 10.4171C22.7416 10.4173 22.742 10.417 22.7422 10.4171C22.9453 10.5333 23.1435 10.6576 23.3367 10.789C23.3369 10.7891 23.3373 10.7889 23.3375 10.789C23.5307 10.9204 23.7183 11.0594 23.9 11.2054C23.9002 11.2056 23.9006 11.2053 23.9008 11.2054C24.0825 11.3515 24.2579 11.5054 24.4266 11.6656C24.7641 11.9862 25.0743 12.3346 25.35 12.7085C26.0393 13.6434 26.5153 14.7381 26.6797 15.9601C26.9494 17.9644 27.1924 20.3557 27.1977 22.9062C27.198 23.088 27.1935 23.2729 27.1914 23.4562C27.1883 23.7254 27.1833 23.9959 27.1742 24.2679C27.1706 24.3779 27.1655 24.4887 27.1609 24.5992C27.1608 24.6028 27.1603 24.6065 27.1602 24.6101C27.1484 24.8844 27.1347 25.1595 27.1164 25.4359C27.116 25.4419 27.116 25.4478 27.1156 25.4539C27.1129 25.4952 27.1091 25.5367 27.1062 25.5781C27.1034 25.6195 27.0999 25.6609 27.0969 25.7023C27.0723 26.0344 27.0436 26.3674 27.0086 26.7015C27.0051 26.7354 27.0013 26.7692 26.9977 26.8031C26.9587 27.1645 26.9138 27.5264 26.8617 27.889C26.6133 29.6236 26.2127 31.364 25.5898 33.0476C25.5468 33.1641 25.4948 33.2821 25.4391 33.4093C25.4371 33.4145 25.4353 33.4197 25.4336 33.425C24.3045 36.0075 21.9101 37.2 19.3867 37.2C16.7424 37.2 14.0054 35.8559 12.6016 33.3656C12.3592 32.9356 12.1487 32.4523 11.9633 31.9335C11.9277 31.8348 11.8937 31.7342 11.8601 31.6328C11.8291 31.5384 11.7989 31.4434 11.7695 31.3468C11.7437 31.2626 11.7183 31.1772 11.6937 31.0914C11.6574 30.9639 11.622 30.8346 11.5883 30.7039C11.5738 30.648 11.5593 30.5923 11.5453 30.5359C11.5032 30.3652 11.4629 30.1924 11.425 30.0171C11.4195 29.9918 11.414 29.9667 11.4086 29.9414C11.3863 29.8366 11.3661 29.7296 11.3453 29.6234C11.281 29.2956 11.2223 28.9631 11.1711 28.6242C11.1044 28.1841 11.0477 27.7364 11.0008 27.2851C10.9816 27.0989 10.97 26.9112 10.9539 26.7242C10.933 26.4832 10.9098 26.2428 10.8937 26.0015C10.8713 25.6601 10.8559 25.3202 10.8422 24.9812C10.8385 24.891 10.8328 24.8 10.8297 24.7101C10.8176 24.3558 10.8109 24.0058 10.807 23.6593C10.8062 23.583 10.8044 23.5054 10.8039 23.4296C10.8018 23.1113 10.8041 22.8004 10.8078 22.4929C10.8092 22.3832 10.8097 22.2721 10.8117 22.164C10.817 21.8732 10.8244 21.59 10.8336 21.3132C10.837 21.2126 10.8407 21.1117 10.8445 21.0132C10.8527 20.8007 10.862 20.5986 10.8719 20.3968C10.8918 19.9916 10.9165 19.6461 10.9406 19.2929C10.9612 18.9902 10.9804 18.6577 11.0016 18.4007C11.0257 18.1095 11.0472 17.8916 11.0687 17.6703C11.0856 17.4974 11.1053 17.2646 11.1187 17.1398C11.1199 17.1289 11.1192 17.1324 11.1203 17.1218C11.1482 16.8642 11.168 16.7085 11.168 16.7085C11.169 16.7002 11.1698 16.6919 11.1703 16.6835C11.3278 14.209 12.1117 12.4448 13.2344 11.2484C13.3946 11.0776 13.5611 10.9183 13.7344 10.7703C14.948 9.73304 16.4791 9.23473 18.0734 9.20151ZM5.07343 10.8187C5.03701 10.8212 5.00196 10.8335 4.97207 10.8545C4.94219 10.8754 4.9186 10.9042 4.90387 10.9376C4.88915 10.971 4.88384 11.0078 4.88853 11.044C4.89321 11.0801 4.90771 11.1144 4.93046 11.1429L6.98281 13.8226C6.99873 13.8437 7.01866 13.8614 7.04145 13.8747C7.06425 13.888 7.08945 13.8967 7.11561 13.9002C7.14178 13.9037 7.16838 13.9021 7.19389 13.8953C7.2194 13.8885 7.24331 13.8767 7.26424 13.8606C7.28517 13.8445 7.30271 13.8244 7.31585 13.8015C7.32899 13.7786 7.33747 13.7534 7.34079 13.7272C7.34411 13.701 7.34222 13.6744 7.33522 13.6489C7.32822 13.6235 7.31624 13.5997 7.29999 13.5789L5.24765 10.8992C5.22969 10.8751 5.20653 10.8553 5.17989 10.8414C5.15324 10.8274 5.1238 10.8197 5.09374 10.8187C5.08698 10.8184 5.0802 10.8184 5.07343 10.8187V10.8187ZM21.3984 11.5992C21.3804 11.5996 21.3625 11.6025 21.3453 11.6078C20.9019 11.7344 20.4466 11.831 19.9953 11.9031C19.9684 11.9061 19.9424 11.9145 19.9188 11.9278C19.8952 11.9412 19.8746 11.9592 19.8582 11.9807C19.8418 12.0023 19.83 12.0269 19.8234 12.0532C19.8168 12.0795 19.8156 12.1068 19.8199 12.1335C19.8242 12.1603 19.8339 12.1859 19.8484 12.2088C19.8628 12.2316 19.8818 12.2514 19.9041 12.2667C19.9264 12.282 19.9516 12.2927 19.9782 12.298C20.0047 12.3033 20.0321 12.3032 20.0586 12.2976C20.5233 12.2233 20.9933 12.1239 21.4547 11.9921C21.5017 11.9793 21.5425 11.9497 21.5693 11.909C21.596 11.8682 21.607 11.8191 21.6001 11.7708C21.5932 11.7225 21.5689 11.6784 21.5317 11.6468C21.4946 11.6152 21.4472 11.5983 21.3984 11.5992V11.5992ZM15.3851 12C15.3352 12.003 15.2881 12.0246 15.2533 12.0607C15.2185 12.0967 15.1985 12.1444 15.1973 12.1945C15.196 12.2446 15.2135 12.2933 15.2464 12.331C15.2794 12.3688 15.3252 12.3928 15.375 12.3984C15.375 12.3984 16.9086 12.5901 18.7875 12.446C18.8145 12.4452 18.8411 12.439 18.8657 12.4276C18.8902 12.4162 18.9122 12.4 18.9303 12.3799C18.9484 12.3598 18.9622 12.3362 18.971 12.3106C18.9797 12.285 18.9831 12.2578 18.981 12.2309C18.979 12.2039 18.9715 12.1776 18.959 12.1536C18.9464 12.1296 18.9292 12.1084 18.9083 12.0913C18.8873 12.0742 18.8631 12.0615 18.8371 12.0539C18.8111 12.0464 18.7839 12.0443 18.757 12.0476C16.9216 12.1883 15.425 12.0015 15.425 12.0015C15.4118 11.9997 15.3984 11.9991 15.3851 12V12ZM22.9226 13.9562C22.1141 13.9666 21.2385 14.0619 20.3047 14.1601C18.2613 14.3745 15.9676 14.6134 13.3523 14.2117H13.3516C12.8104 14.1261 12.2959 14.5035 12.2117 15.0476C12.1281 15.5912 12.5041 16.1046 13.0476 16.1882C14.1846 16.3632 15.271 16.4273 16.2945 16.4273C17.8621 16.4273 19.2826 16.2776 20.5125 16.1492C20.5128 16.1492 20.513 16.1492 20.5133 16.1492C22.1856 15.9732 23.6218 15.8404 24.4617 16.1421C24.979 16.3274 25.5544 16.0554 25.7406 15.5382C25.9269 15.0209 25.6551 14.4455 25.1375 14.2593C24.4724 14.0201 23.7312 13.9458 22.9226 13.9562ZM22.925 14.3617C23.7057 14.3519 24.4031 14.4203 25.0023 14.6359C25.3168 14.749 25.477 15.0893 25.3641 15.4031C25.251 15.7171 24.9107 15.878 24.5969 15.7656C23.5952 15.4057 22.1435 15.5755 20.4711 15.7515C19.241 15.8799 17.8366 16.0273 16.2945 16.0273C15.2876 16.0273 14.2221 15.9643 13.1086 15.7929C12.7786 15.7421 12.5563 15.4385 12.607 15.1085C12.6583 14.7797 12.966 14.5555 13.2898 14.607C13.2901 14.607 13.2904 14.607 13.2906 14.607C15.9646 15.0179 18.3025 14.7722 20.3461 14.5578C20.3463 14.5578 20.3466 14.5578 20.3469 14.5578C21.2807 14.4596 22.1443 14.3715 22.925 14.3617ZM7.93124 14.5492C7.8949 14.5516 7.8599 14.5639 7.83003 14.5848C7.80017 14.6056 7.77656 14.6342 7.76177 14.6675C7.74697 14.7008 7.74155 14.7375 7.74608 14.7736C7.75062 14.8098 7.76493 14.844 7.78749 14.8726L8.60702 15.9429C8.63935 15.9851 8.6871 16.0127 8.73977 16.0196C8.79244 16.0266 8.84572 16.0124 8.88788 15.98C8.93005 15.9477 8.95765 15.9 8.96461 15.8473C8.97157 15.7946 8.95732 15.7413 8.92499 15.6992L8.10546 14.6296C8.08549 14.6027 8.05908 14.5812 8.02863 14.5671C7.99819 14.5531 7.9647 14.5469 7.93124 14.5492V14.5492ZM13.6937 17.1375C13.6554 17.137 13.6177 17.1476 13.5851 17.1679C12.6683 17.7279 12.0475 18.7239 12.0062 19.8664C12.0055 19.8914 12.0095 19.9163 12.018 19.9398C11.9884 20.2733 12.0051 20.6208 12.0851 20.9765C12.3683 22.2328 13.3935 23.2245 14.6594 23.4632C14.6596 23.4632 14.6599 23.4632 14.6601 23.4632C16.7541 23.8577 18.6 22.2539 18.6 20.2242C18.6 20.054 18.5798 19.8925 18.5539 19.7351C18.5744 19.6985 18.5829 19.6564 18.5781 19.6148C18.47 18.6553 17.9513 17.8206 17.2016 17.2906C17.1583 17.2599 17.1045 17.2477 17.0522 17.2566C16.9999 17.2656 16.9533 17.2949 16.9226 17.3382C16.892 17.3815 16.8798 17.4353 16.8887 17.4876C16.8977 17.5399 16.927 17.5865 16.9703 17.6171C17.5529 18.029 17.9363 18.6672 18.0914 19.389C17.2223 19.2447 16.3508 19.1833 15.4773 19.2054C15.4517 19.2019 15.4259 19.2001 15.4 19.2C15.3696 19.2003 15.3393 19.2029 15.3094 19.2078C15.2997 19.2081 15.2901 19.2074 15.2805 19.2078C14.3505 19.2445 13.4185 19.3798 12.4851 19.6031C12.6066 18.7236 13.0691 17.9519 13.7937 17.5093C13.8312 17.487 13.8604 17.4531 13.8768 17.4127C13.8932 17.3723 13.8959 17.3276 13.8846 17.2855C13.8733 17.2434 13.8485 17.2062 13.814 17.1794C13.7796 17.1527 13.7373 17.138 13.6937 17.1375V17.1375ZM21.2937 17.1375C21.2554 17.137 21.2177 17.1476 21.1851 17.1679C20.2683 17.7279 19.6475 18.7239 19.6062 19.8664C19.6055 19.8914 19.6095 19.9163 19.618 19.9398C19.5884 20.2733 19.6051 20.6208 19.6851 20.9765C19.9683 22.2328 20.9935 23.2245 22.2594 23.4632C22.2596 23.4632 22.2599 23.4632 22.2601 23.4632C24.3541 23.8577 26.2 22.2539 26.2 20.2242C26.2 20.054 26.1798 19.8925 26.1539 19.7351C26.1744 19.6985 26.1829 19.6564 26.1781 19.6148C26.07 18.6553 25.5513 17.8206 24.8016 17.2906C24.7801 17.2754 24.7559 17.2646 24.7303 17.2588C24.7046 17.2529 24.6781 17.2522 24.6522 17.2566C24.6263 17.2611 24.6016 17.2705 24.5793 17.2845C24.5571 17.2985 24.5378 17.3168 24.5226 17.3382C24.5075 17.3597 24.4967 17.3839 24.4908 17.4095C24.485 17.4351 24.4843 17.4617 24.4887 17.4876C24.4931 17.5135 24.5026 17.5382 24.5166 17.5605C24.5306 17.5827 24.5489 17.602 24.5703 17.6171C25.1529 18.029 25.5363 18.6672 25.6914 19.389C24.8223 19.2447 23.9508 19.1833 23.0773 19.2054C23.0517 19.2019 23.0259 19.2001 23 19.2C22.9696 19.2003 22.9393 19.2029 22.9094 19.2078C22.8997 19.2081 22.8901 19.2074 22.8805 19.2078C21.9505 19.2445 21.0185 19.3798 20.0851 19.6031C20.2066 18.7236 20.6691 17.9519 21.3937 17.5093C21.4312 17.487 21.4604 17.4531 21.4768 17.4127C21.4932 17.3723 21.4959 17.3276 21.4846 17.2855C21.4733 17.2434 21.4485 17.2062 21.414 17.1794C21.3796 17.1527 21.3373 17.138 21.2937 17.1375V17.1375ZM16.0125 19.6007C16.7282 19.6153 17.4422 19.6915 18.1555 19.8171C18.1769 19.9522 18.2 20.0872 18.2 20.2242C18.2 22.0128 16.5932 23.4206 14.7336 23.0703C13.6282 22.8618 12.7223 21.9856 12.475 20.8882C12.4091 20.5956 12.4115 20.3154 12.4305 20.0398C13.2298 19.8399 14.0269 19.703 14.8219 19.6398C14.7972 19.7289 14.7934 19.8225 14.8109 19.9133C14.8284 20.0041 14.8666 20.0896 14.9225 20.1632C14.9785 20.2367 15.0507 20.2964 15.1335 20.3375C15.2163 20.3786 15.3075 20.3999 15.4 20.4C15.4958 20.3999 15.5902 20.3768 15.6752 20.3328C15.7603 20.2887 15.8336 20.225 15.889 20.1468C15.9444 20.0686 15.9802 19.9783 15.9935 19.8835C16.0069 19.7886 15.9973 19.6919 15.9656 19.6015C15.9812 19.6018 15.9969 19.6004 16.0125 19.6007ZM23.6125 19.6007C24.3282 19.6153 25.0422 19.6915 25.7555 19.8171C25.7769 19.9522 25.8 20.0872 25.8 20.2242C25.8 22.0128 24.1932 23.4206 22.3336 23.0703C21.2282 22.8618 20.3223 21.9856 20.075 20.8882C20.0091 20.5956 20.0115 20.3154 20.0305 20.0398C20.8298 19.8399 21.6269 19.703 22.4219 19.6398C22.3972 19.7289 22.3934 19.8225 22.4109 19.9133C22.4284 20.0041 22.4666 20.0896 22.5225 20.1632C22.5785 20.2367 22.6507 20.2964 22.7335 20.3375C22.8163 20.3786 22.9075 20.3999 23 20.4C23.0958 20.3999 23.1902 20.3768 23.2752 20.3328C23.3603 20.2887 23.4336 20.225 23.489 20.1468C23.5444 20.0686 23.5802 19.9783 23.5935 19.8835C23.6069 19.7886 23.5973 19.6919 23.5656 19.6015C23.5812 19.6018 23.5969 19.6004 23.6125 19.6007ZM17.7969 23.5968C17.7706 23.5972 17.7447 23.6028 17.7206 23.6132C17.6965 23.6237 17.6746 23.6388 17.6564 23.6576C17.6381 23.6765 17.6237 23.6988 17.614 23.7232C17.6043 23.7476 17.5996 23.7737 17.6 23.8V26.2C17.6 26.7333 17.7328 27.1526 17.9523 27.4453C18.1718 27.7379 18.4833 27.9 18.8 27.9C19.1167 27.9 19.4281 27.7379 19.6476 27.4453C19.8671 27.1526 20 26.7333 20 26.2V23.8C20.0004 23.7734 19.9955 23.7471 19.9856 23.7225C19.9757 23.6979 19.961 23.6756 19.9424 23.6567C19.9238 23.6378 19.9016 23.6228 19.8772 23.6126C19.8527 23.6024 19.8265 23.5971 19.8 23.5971C19.7735 23.5971 19.7472 23.6024 19.7228 23.6126C19.6983 23.6228 19.6762 23.6378 19.6576 23.6567C19.639 23.6756 19.6243 23.6979 19.6144 23.7225C19.6045 23.7471 19.5996 23.7734 19.6 23.8V26.2C19.6 26.6666 19.4828 26.9973 19.3273 27.2046C19.1718 27.412 18.9833 27.5 18.8 27.5C18.6167 27.5 18.4281 27.412 18.2726 27.2046C18.1171 26.9973 18 26.6666 18 26.2V23.8C18.0004 23.7732 17.9954 23.7466 17.9854 23.7217C17.9753 23.6969 17.9604 23.6743 17.9414 23.6554C17.9225 23.6364 17.8999 23.6215 17.8751 23.6114C17.8503 23.6014 17.8237 23.5964 17.7969 23.5968V23.5968ZM10.0086 23.7968C10.0231 24.9915 10.0773 26.2353 10.2062 27.4687C9.39735 27.2139 8.79999 26.4961 8.79999 25.6C8.79999 24.7782 9.30425 24.1044 10.0086 23.7968ZM27.9906 23.7984C28.6949 24.1058 29.2 24.7782 29.2 25.6C29.2 26.519 28.5732 27.2493 27.732 27.4843C27.7325 27.4807 27.7323 27.477 27.7328 27.4734C27.8303 26.7007 27.8984 25.9319 27.9414 25.1718C27.9417 25.1666 27.9419 25.1614 27.9422 25.1562C27.9464 25.0815 27.9478 25.0081 27.9516 24.9335C27.9669 24.6262 27.9805 24.3195 27.9883 24.0156C27.989 23.9872 27.9884 23.9595 27.9891 23.9312C27.9901 23.8866 27.9897 23.8429 27.9906 23.7984ZM12.7234 23.8789C12.6836 23.8809 12.6452 23.8947 12.6133 23.9187C12.5814 23.9427 12.5574 23.9756 12.5444 24.0134C12.5314 24.0511 12.53 24.0918 12.5403 24.1304C12.5506 24.1689 12.5722 24.2035 12.6023 24.2296C12.6023 24.2296 14.1726 25.6265 16.2742 24.7859C16.2986 24.7761 16.3209 24.7617 16.3397 24.7433C16.3586 24.725 16.3736 24.7031 16.384 24.679C16.3943 24.6548 16.3999 24.6288 16.4002 24.6025C16.4005 24.5762 16.3957 24.5501 16.386 24.5257C16.3762 24.5013 16.3617 24.479 16.3434 24.4602C16.325 24.4414 16.3032 24.4264 16.279 24.416C16.2548 24.4056 16.2289 24.4001 16.2026 24.3998C16.1763 24.3994 16.1502 24.4043 16.1258 24.414C14.2274 25.1734 12.8695 23.932 12.8695 23.932C12.85 23.9138 12.8269 23.8998 12.8018 23.8906C12.7768 23.8815 12.7501 23.8775 12.7234 23.8789ZM25.0062 23.8789C24.9545 23.8778 24.9044 23.8969 24.8664 23.932C24.8664 23.932 23.5085 25.1734 21.6101 24.414C21.5857 24.4043 21.5596 24.3994 21.5333 24.3998C21.507 24.4001 21.4811 24.4056 21.4569 24.416C21.4328 24.4264 21.4109 24.4414 21.3925 24.4602C21.3742 24.479 21.3597 24.5013 21.35 24.5257C21.3402 24.5501 21.3354 24.5762 21.3357 24.6025C21.3361 24.6288 21.3416 24.6548 21.352 24.679C21.3623 24.7031 21.3774 24.725 21.3962 24.7433C21.415 24.7617 21.4373 24.7761 21.4617 24.7859C23.5634 25.6265 25.1336 24.2296 25.1336 24.2296C25.164 24.2031 25.1857 24.168 25.1958 24.1289C25.2059 24.0898 25.204 24.0485 25.1902 24.0106C25.1764 23.9726 25.1515 23.9397 25.1186 23.9162C25.0858 23.8927 25.0466 23.8797 25.0062 23.8789V23.8789ZM18.75 30.7117C16.0445 30.7399 14.1172 31.6179 14.1172 31.6179C14.0928 31.6285 14.0707 31.6438 14.0523 31.6629C14.0339 31.6821 14.0194 31.7048 14.0099 31.7296C14.0003 31.7544 13.9958 31.7809 13.9966 31.8074C13.9973 31.834 14.0034 31.8602 14.0144 31.8844C14.0254 31.9086 14.0412 31.9303 14.0607 31.9484C14.0802 31.9664 14.1031 31.9804 14.1281 31.9895C14.1531 31.9986 14.1797 32.0026 14.2062 32.0013C14.2328 32 14.2588 31.9935 14.2828 31.982C14.2828 31.982 18.6072 30.0192 23.3234 31.9843C23.348 31.9963 23.3747 32.0032 23.402 32.0045C23.4292 32.0058 23.4565 32.0015 23.482 31.9918C23.5076 31.9822 23.5309 31.9674 23.5505 31.9484C23.5701 31.9294 23.5856 31.9066 23.5961 31.8814C23.6066 31.8562 23.6118 31.8291 23.6114 31.8018C23.611 31.7745 23.605 31.7475 23.5938 31.7226C23.5826 31.6977 23.5664 31.6754 23.5463 31.657C23.5261 31.6386 23.5024 31.6245 23.4766 31.6156C22.2556 31.1069 21.0603 30.8521 19.9539 30.757C19.539 30.7213 19.1365 30.7076 18.75 30.7117Z" fill="black"/>
</svg>
