<svg width="250" height="250" viewBox="0 0 250 250" fill="none" xmlns="http://www.w3.org/2000/svg">
<path opacity="0.79" fill-rule="evenodd" clip-rule="evenodd" d="M109.375 24.3751C119.384 24.1671 129.384 24.3754 139.375 25.0001C153.845 29.6714 162.179 39.4631 164.375 54.3751C180.581 57.7894 194.54 65.2894 206.25 76.875C216.584 91.1425 217 105.726 207.5 120.625C195.835 133.105 181.669 141.439 165 145.625C163.96 156.898 164.169 168.148 165.625 179.375C183 184.656 191.75 196.323 191.875 214.375C146.875 214.375 101.875 214.375 56.875 214.375C56.9609 196.354 65.7109 184.688 83.125 179.375C84.3729 167.738 84.7895 156.071 84.375 144.375C64.4904 140.8 48.8654 130.8 37.5 114.375C32.7444 102.695 33.5776 91.4448 40 80.625C52.0487 67.206 66.8404 58.4561 84.375 54.3751C84.8947 43.9608 89.4781 35.8358 98.125 30.0001C101.797 27.7489 105.547 25.8739 109.375 24.3751ZM118.125 29.3751C137.256 26.6396 150.59 33.9313 158.125 51.2501C157.5 51.4584 156.875 51.6667 156.25 51.8751C153.944 48.7493 151.86 45.416 150 41.8751C148.42 39.2413 146.129 37.9913 143.125 38.1251C142.939 39.4401 143.146 40.6901 143.75 41.8751C146.346 43.8448 148.221 46.3448 149.375 49.3751C148.541 49.7917 147.709 50.2084 146.875 50.6251C129.111 48.7127 111.403 49.1294 93.75 51.8751C92.7084 51.4584 91.6666 51.0417 90.625 50.6251C95.764 38.0831 104.931 30.9998 118.125 29.3751ZM123.125 54.3751C148.366 54.2252 171.7 60.6835 193.125 73.75C199.344 78.7127 204.136 84.7544 207.5 91.875C209.126 99.9024 207.876 107.402 203.75 114.375C193.286 126.716 180.161 134.633 164.375 138.125C163.486 133.92 164.945 131.004 168.75 129.375C173.403 121.183 175.07 112.433 173.75 103.125C171.256 100.316 168.131 99.0663 164.375 99.375C164.225 95.6498 163.391 92.1082 161.875 88.75C153.607 86.827 145.691 83.9104 138.125 80C133.689 76.1783 129.105 72.6367 124.375 69.375C114.156 80.939 101.239 86.7724 85.625 86.875C85.2084 91.0417 84.7916 95.2084 84.375 99.375C77.2399 99.01 73.9065 102.343 74.375 109.375C74.8474 115.849 76.3058 122.099 78.75 128.125C80.1931 129.679 81.8597 130.929 83.75 131.875C84.7469 134.074 84.5386 136.158 83.125 138.125C65.6809 133.896 52.1392 124.313 42.5 109.375C39.2335 99.9428 40.4835 91.1928 46.25 83.125C60.2685 69.1362 77.1435 60.5946 96.875 57.5C105.812 56.4538 114.562 55.4122 123.125 54.3751ZM124.375 74.375C133.879 83.2937 145.129 88.9187 158.125 91.25C159.764 95.4424 160.805 99.8174 161.25 104.375C162.999 105.283 164.874 105.908 166.875 106.25C167.904 112.198 167.07 118.032 164.375 123.75C163.627 125.376 162.378 126.419 160.625 126.875C160.324 139.768 154.908 149.976 144.375 157.5C131.041 168.334 117.708 168.334 104.375 157.5C93.8429 149.976 88.4263 139.768 88.125 126.875C86.3726 126.419 85.1226 125.376 84.375 123.75C81.6801 118.032 80.8467 112.198 81.875 106.25C83.8765 105.908 85.7515 105.283 87.5 104.375C88.3986 99.8183 89.0236 95.2349 89.375 90.625C97.1484 89.9102 104.648 88.0352 111.875 85C117.016 82.5649 121.182 79.0233 124.375 74.375ZM89.375 151.875C93.1203 156.866 97.7036 161.033 103.125 164.375C104.887 167.436 104.47 170.145 101.875 172.5C98.1743 174.081 94.4243 175.539 90.625 176.875C89.3791 168.583 88.9625 160.25 89.375 151.875ZM158.125 151.875C159.772 160.014 159.772 168.348 158.125 176.875C154.326 175.539 150.576 174.081 146.875 172.5C145.132 171.305 144.299 169.639 144.375 167.5C149.52 162.83 154.104 157.623 158.125 151.875ZM109.375 165.625C119.167 170.59 128.959 170.59 138.75 165.625C139.022 169.283 139.647 172.825 140.625 176.25C129.77 187.065 118.936 187.065 108.125 176.25C109.305 172.851 109.721 169.31 109.375 165.625ZM143.125 178.125C149.344 180.396 155.594 182.688 161.875 185C149.452 192.774 136.744 200.066 123.75 206.875C111.172 200.274 98.8805 193.191 86.875 185.625C92.1486 183.198 97.5654 181.114 103.125 179.375C107.421 181.368 111.588 183.659 115.625 186.25C123.405 187.576 130.905 186.743 138.125 183.75C140.24 182.116 141.906 180.241 143.125 178.125ZM165.625 186.875C177.169 190.084 183.835 197.584 185.625 209.375C166.87 209.584 148.12 209.375 129.375 208.75C141.952 202.055 154.036 194.763 165.625 186.875ZM78.125 188.125C81.7806 188.075 85.114 189.116 88.125 191.25C98.125 197.084 108.125 202.916 118.125 208.75C99.7964 209.375 81.4631 209.584 63.125 209.375C64.264 199.498 69.264 192.414 78.125 188.125Z" fill="black"/>
<path opacity="0.57" fill-rule="evenodd" clip-rule="evenodd" d="M111.875 33.125C114.792 33.125 117.708 33.125 120.625 33.125C120.625 34.375 120.625 35.625 120.625 36.875C110.972 37.1193 103.472 41.2859 98.125 49.375C96.875 48.9584 96.0416 48.125 95.625 46.875C99.4045 40.216 104.821 35.6326 111.875 33.125Z" fill="black"/>
<path opacity="0.622" fill-rule="evenodd" clip-rule="evenodd" d="M116.875 58.125C144.006 56.7818 169.006 63.2402 191.875 77.5C209.177 93.9095 208.136 109.118 188.75 123.125C187.885 122.468 187.26 121.635 186.875 120.625C205.749 104.216 204.499 89.4246 183.125 76.25C161.924 65.4263 139.424 60.8431 115.625 62.5C105.547 63.555 95.5472 65.0133 85.625 66.875C85.625 65.625 85.625 64.375 85.625 63.125C96.1404 61.0241 106.557 59.3575 116.875 58.125Z" fill="black"/>
<path opacity="0.555" fill-rule="evenodd" clip-rule="evenodd" d="M78.125 65.625C79.7916 65.625 81.4584 65.625 83.125 65.625C83.125 66.875 83.125 68.125 83.125 69.375C79.8006 70.4339 76.4672 71.0589 73.125 71.25C72.7084 70.8334 72.2916 70.4166 71.875 70C73.6944 67.9679 75.7776 66.5095 78.125 65.625Z" fill="black"/>
<path opacity="0.601" fill-rule="evenodd" clip-rule="evenodd" d="M66.875 70.625C68.125 70.625 69.375 70.625 70.625 70.625C68.8092 75.1237 65.476 78.2487 60.625 80C45.4757 93.3223 45.684 106.447 61.25 119.375C62.1867 120.794 61.9784 122.044 60.625 123.125C44.422 112.86 41.297 99.5268 51.25 83.125C56.2032 78.4836 61.4116 74.3169 66.875 70.625Z" fill="black"/>
<path opacity="0.74" fill-rule="evenodd" clip-rule="evenodd" d="M91.875 94.375C101.042 94.375 110.208 94.375 119.375 94.375C119.375 96.0416 119.375 97.7084 119.375 99.375C110.616 98.9576 101.866 98.3326 93.125 97.5C92.1845 96.6615 91.7677 95.6199 91.875 94.375Z" fill="black"/>
<path opacity="0.741" fill-rule="evenodd" clip-rule="evenodd" d="M129.375 94.375C138.579 93.9618 147.746 94.3784 156.875 95.625C156.614 96.3575 156.196 96.9825 155.625 97.5C146.884 98.3327 138.134 98.9577 129.375 99.375C129.375 97.7084 129.375 96.0417 129.375 94.375Z" fill="black"/>
<path opacity="0.708" fill-rule="evenodd" clip-rule="evenodd" d="M103.125 106.875C105.991 106.555 108.699 106.971 111.25 108.125C112.222 111.787 112.013 115.329 110.625 118.75C103.632 121.142 100.924 118.85 102.5 111.875C103.616 113.389 104.658 113.389 105.625 111.875C102.428 110.978 101.594 109.311 103.125 106.875Z" fill="black"/>
<path opacity="0.708" fill-rule="evenodd" clip-rule="evenodd" d="M138.125 106.875C140.99 106.555 143.699 106.971 146.25 108.125C147.221 111.787 147.013 115.329 145.625 118.75C138.633 121.142 135.924 118.85 137.5 111.875C138.616 113.389 139.658 113.389 140.625 111.875C137.428 110.978 136.594 109.311 138.125 106.875Z" fill="black"/>
<path opacity="0.595" fill-rule="evenodd" clip-rule="evenodd" d="M180.625 123.125C181.875 123.125 183.125 123.125 184.375 123.125C184.649 124.594 184.233 125.844 183.125 126.875C180.734 127.966 178.441 129.216 176.25 130.625C174.713 129.656 174.296 128.406 175 126.875C177.065 125.751 178.94 124.501 180.625 123.125Z" fill="black"/>
<path opacity="0.662" fill-rule="evenodd" clip-rule="evenodd" d="M116.875 134.375C121.875 136.041 126.875 136.041 131.875 134.375C131.226 138.469 128.726 140.135 124.375 139.375C120.024 140.135 117.524 138.469 116.875 134.375Z" fill="black"/>
<path opacity="0.62" fill-rule="evenodd" clip-rule="evenodd" d="M104.375 144.375C117.07 149.284 129.779 149.284 142.5 144.375C143.125 144.791 143.75 145.209 144.375 145.625C138.755 150.691 132.089 152.774 124.375 151.875C117.62 152.523 111.37 151.064 105.625 147.5C104.684 146.661 104.268 145.62 104.375 144.375Z" fill="black"/>
</svg>
