<svg width="85" height="73" viewBox="0 0 85 73" fill="none" xmlns="http://www.w3.org/2000/svg">
<path d="M34.4512 1.25489C24.0304 2.85702 14.8538 7.31294 8.26955 14.0719C-3.08449 25.7374 -2.72157 41.0578 9.20275 52.5731C12.3653 55.6272 12.4171 55.7273 12.4171 58.4309C12.4171 62.7867 11.4321 66.8922 9.77305 69.4956C8.94353 70.8474 8.37324 72.1491 8.58062 72.3995C9.41013 73.7012 18.0164 72.1491 22.7343 69.8962C24.4452 69.045 26.9856 67.2927 28.3335 66.041L30.7702 63.788L35.6955 64.3888C41.2429 65.0898 49.3826 64.7393 54.3078 63.5878C72.2462 59.4823 85 46.6653 85 32.7968C85 18.9284 72.3498 6.21148 54.3078 2.00589C50.3158 1.05463 38.7025 0.654091 34.4512 1.25489ZM54.93 4.25889C67.1654 7.16274 77.7417 15.2735 81.3709 24.636C86.5554 38.0538 78.1046 52.7233 61.3069 59.3321C53.2709 62.4863 42.8501 63.5878 34.5031 62.1859L29.8889 61.3848L27.6595 63.788C24.9636 66.6919 20.5049 69.045 15.7871 70.0964C13.8688 70.547 12.2098 70.7974 12.1061 70.6972C12.0024 70.5971 12.4171 69.3454 12.9874 67.8434C13.6614 66.0911 14.128 63.3875 14.3354 60.0831L14.6465 55.0264L10.8099 51.2714C6.61051 47.216 4.07011 43.1606 2.82583 38.5545C-1.37361 22.8336 12.1061 7.41308 33.5699 3.50789C39.0136 2.50655 49.0715 2.85702 54.93 4.25889Z" fill="black"/>
<path d="M34.0365 8.51456C19.1052 11.2682 8.42512 20.3803 7.38822 31.395C7.129 34.0986 7.49191 37.2027 8.06221 36.652C8.21774 36.5518 8.37328 34.6493 8.42512 32.4464C8.52881 28.9918 8.78804 27.9905 10.4989 24.636C17.1351 11.6688 37.9767 5.36037 56.3298 10.8176C59.7516 11.869 61.0995 11.819 59.1294 10.7676C54.4634 8.36436 41.3466 7.21283 34.0365 8.51456Z" fill="black"/>
<path d="M61.1513 12.2695C61.1513 12.9204 62.603 13.5212 63.1214 13.0706C63.277 12.8703 63.1214 12.5199 62.7067 12.2695C61.6698 11.6187 61.1513 11.6687 61.1513 12.2695Z" fill="black"/>
<path d="M65.2471 14.7729C66.4396 15.7742 67.3728 16.0746 67.3728 15.4738C67.3728 14.9231 65.61 13.8216 64.7805 13.8216C64.2621 13.8216 64.3658 14.122 65.2471 14.7729Z" fill="black"/>
<path d="M30.3555 18.3777C29.9925 19.2789 28.3335 23.5846 26.6745 27.9404C24.4451 33.8482 23.823 36.0011 24.2896 36.4517C25.0673 37.2027 25.6376 36.5518 26.7782 33.5478L27.7632 31.0445H31.5997H35.4363L36.525 33.7481C37.5619 36.5018 38.6506 37.453 39.1172 36.2014C39.4802 35.3002 32.5329 17.126 31.7034 16.8757C31.3405 16.7755 30.7702 17.4264 30.3555 18.3777ZM33.2588 25.0365L34.6067 28.7915H31.5997H28.5927L29.9407 25.0365C30.7184 22.9838 31.4442 21.2815 31.5997 21.2815C31.7553 21.2815 32.4811 22.9838 33.2588 25.0365Z" fill="black"/>
<path d="M69.4465 17.4765C69.4465 17.6767 70.4316 18.9785 71.6758 20.4304C75.2013 24.636 76.4456 27.7902 76.4456 32.7968C76.4456 36.5518 76.2382 37.453 74.7347 40.5071C71.4685 47.1659 63.4844 52.9236 54.0486 55.4269C48.2938 56.9289 36.6805 56.9289 31.0295 55.4269C26.156 54.1753 20.7642 51.5718 17.135 48.8181C15.6315 47.6666 14.2836 46.8655 14.128 46.9657C13.6614 47.4663 14.5428 48.3175 18.2238 50.8208C26.83 56.6786 38.9617 59.0317 50.5231 57.0791C73.2312 53.224 84.5334 35.0999 73.1794 20.6807C71.0537 17.9771 69.4465 16.5753 69.4465 17.4765Z" fill="black"/>
<path d="M50.1084 27.0892C49.901 27.2895 49.7454 28.1907 49.7454 29.0919V30.7441L45.7534 30.8943C42.5908 30.9944 41.7095 31.1947 41.7095 31.7955C41.7095 32.3963 42.9019 32.5465 48.6048 32.6967C53.582 32.7968 55.4484 32.9971 55.4484 33.4477C55.4484 34.399 52.5969 38.955 51.3008 40.0565L50.1602 41.0578L48.7604 39.3555C45.8052 35.6006 45.7015 35.5004 45.0276 36.1513C44.3536 36.8022 45.1831 38.4544 47.568 40.9577C49.1751 42.5598 49.0196 42.71 44.7165 44.8128C42.9019 45.6639 41.4503 46.5651 41.4503 46.8655C41.4503 48.0671 43.2648 47.7667 46.8421 45.9143C49.8491 44.3121 50.8342 44.0117 51.2489 44.5124C52.1303 45.5638 56.9519 47.9169 57.5222 47.5665C58.5072 46.9657 58.0406 46.3148 55.1892 44.5625C53.6338 43.6112 52.3377 42.6599 52.3377 42.5097C52.3377 42.3595 52.908 41.5084 53.6856 40.7073C55.1892 38.905 57.5222 34.6493 57.5222 33.5979C57.5222 33.1473 58.1443 32.7968 59.2331 32.6967C60.27 32.5966 60.8921 32.2962 60.8921 31.7955C60.8921 31.1947 59.9589 30.9944 56.3816 30.8943L51.8711 30.7441L51.7155 28.9417C51.56 27.1894 50.8342 26.3883 50.1084 27.0892Z" fill="black"/>
<path d="M8.788 39.706C8.788 40.6573 11.4321 44.963 12.3653 45.5137C12.6764 45.714 12.9356 45.5638 12.9356 45.1132C12.9356 44.7127 12.6764 44.212 12.4171 44.0618C12.1061 43.8615 11.2766 42.6099 10.6026 41.2581C9.20276 38.6546 8.788 38.2541 8.788 39.706Z" fill="black"/>
</svg>
