<?xml version="1.0" standalone="no"?>
<!DOCTYPE svg PUBLIC "-//W3C//DTD SVG 20010904//EN"
 "http://www.w3.org/TR/2001/REC-SVG-20010904/DTD/svg10.dtd">
<svg version="1.0" xmlns="http://www.w3.org/2000/svg"
 width="200.000000pt" height="200.000000pt" viewBox="0 0 200.000000 200.000000"
 preserveAspectRatio="xMidYMid meet">

<g transform="translate(0.000000,200.000000) scale(0.100000,-0.100000)"
fill="#000000" stroke="none">
<path d="M860 1706 c-146 -31 -288 -112 -387 -220 -74 -82 -118 -155 -154
-258 -33 -96 -38 -151 -12 -146 11 2 21 25 33 73 32 140 113 270 227 365 74
62 134 96 228 127 70 23 96 27 205 27 109 0 136 -4 205 -27 108 -36 195 -89
274 -168 79 -79 132 -166 168 -274 23 -69 27 -96 27 -205 0 -109 -4 -136 -27
-205 -36 -108 -89 -195 -168 -274 -79 -79 -166 -132 -274 -168 -69 -23 -97
-27 -205 -27 -111 0 -134 3 -205 28 -95 33 -157 67 -229 127 -111 92 -194 225
-226 362 -12 50 -22 73 -33 75 -26 5 -21 -50 12 -146 36 -103 80 -176 154
-258 186 -203 481 -283 743 -199 112 35 197 88 289 180 91 91 144 175 182 290
39 117 39 313 0 430 -38 115 -91 199 -182 290 -139 139 -283 203 -475 210 -66
3 -129 -1 -170 -9z"/>
<path d="M870 1605 c-171 -38 -335 -163 -414 -314 -37 -71 -66 -155 -66 -195
0 -34 16 -4 34 64 27 100 73 177 156 261 88 88 182 140 300 165 85 18 205 14
283 -10 62 -19 71 -3 10 18 -68 24 -223 29 -303 11z"/>
<path d="M1265 1550 c-6 -11 31 -33 47 -28 6 2 -1 12 -15 21 -15 9 -28 13 -32
7z"/>
<path d="M1342 1498 c3 -7 13 -15 24 -17 16 -3 17 -1 5 13 -16 19 -34 21 -29
4z"/>
<path d="M1400 1454 c0 -3 21 -30 48 -58 92 -101 152 -258 152 -396 0 -85 -30
-204 -72 -283 -44 -82 -165 -203 -245 -245 -238 -125 -515 -82 -703 107 -83
84 -129 161 -156 261 -10 36 -21 69 -26 74 -13 16 -9 -26 8 -85 48 -161 167
-305 315 -378 144 -71 281 -88 423 -51 235 60 409 239 462 476 41 185 -22 409
-154 547 -34 34 -52 46 -52 31z"/>
<path d="M752 1188 c-23 -23 -12 -47 44 -95 l55 -48 -327 -5 c-297 -5 -328 -7
-338 -22 -8 -13 -8 -23 0 -35 10 -16 41 -18 338 -23 l327 -5 -55 -48 c-31 -27
-56 -56 -56 -66 0 -21 19 -41 39 -41 24 0 221 179 221 200 0 21 -197 200 -220
200 -9 0 -21 -5 -28 -12z m132 -94 c53 -47 96 -89 96 -94 0 -14 -192 -181
-203 -177 -26 8 -14 29 48 83 36 32 65 61 65 66 0 4 -154 9 -342 10 -297 3
-343 5 -343 18 0 13 46 15 343 18 188 1 342 6 342 10 0 4 -30 34 -67 68 -42
38 -64 65 -59 72 4 7 11 12 15 12 5 0 52 -39 105 -86z"/>
</g>
</svg>
