<?xml version="1.0" standalone="no"?>
<!DOCTYPE svg PUBLIC "-//W3C//DTD SVG 20010904//EN"
 "http://www.w3.org/TR/2001/REC-SVG-20010904/DTD/svg10.dtd">
<svg version="1.0" xmlns="http://www.w3.org/2000/svg"
 width="200.000000pt" height="200.000000pt" viewBox="0 0 200.000000 200.000000"
 preserveAspectRatio="xMidYMid meet">

<g transform="translate(0.000000,200.000000) scale(0.100000,-0.100000)"
fill="#000000" stroke="none">
<path d="M875 1709 c-142 -24 -270 -92 -381 -203 -90 -90 -143 -175 -182 -294
-22 -67 -26 -94 -26 -212 0 -118 4 -145 26 -212 14 -42 42 -107 63 -145 50
-90 178 -218 268 -268 283 -157 626 -113 855 108 92 89 198 265 174 289 -16
16 -28 3 -60 -65 -108 -230 -357 -387 -612 -387 -202 0 -417 105 -536 263
-123 162 -168 360 -128 555 54 263 264 473 526 526 306 63 618 -92 750 -371
32 -68 44 -81 60 -65 13 13 -25 99 -80 179 -158 230 -441 349 -717 302z"/>
<path d="M887 1605 c-38 -8 -108 -33 -155 -56 -70 -34 -103 -57 -167 -123 -92
-93 -136 -167 -165 -282 -53 -207 6 -410 165 -570 88 -88 142 -123 253 -160
255 -86 544 16 696 245 25 38 46 71 46 75 0 19 -21 -2 -58 -58 -56 -85 -150
-169 -237 -212 -227 -111 -483 -71 -669 106 -79 75 -126 146 -164 248 -22 58
-26 83 -26 182 0 94 4 127 23 180 65 187 218 332 411 392 90 28 246 30 323 5
26 -8 49 -11 52 -7 9 15 -95 41 -180 45 -48 3 -108 -1 -148 -10z"/>
<path d="M1265 1550 c-6 -11 31 -33 47 -28 6 2 -1 12 -15 21 -15 9 -28 13 -32
7z"/>
<path d="M1342 1498 c3 -7 13 -15 24 -17 16 -3 17 -1 5 13 -16 19 -34 21 -29
4z"/>
<path d="M1400 1452 c0 -4 16 -24 36 -43 19 -18 52 -60 71 -91 20 -32 40 -58
44 -58 14 0 11 8 -27 68 -52 83 -124 154 -124 124z"/>
<path d="M1532 1188 c-23 -23 -12 -47 44 -95 l55 -48 -337 -5 c-307 -5 -338
-7 -348 -22 -8 -13 -8 -23 0 -35 10 -16 41 -18 348 -23 l337 -5 -55 -48 c-31
-27 -56 -56 -56 -66 0 -21 19 -41 40 -41 24 0 220 178 220 200 0 22 -196 200
-220 200 -9 0 -21 -5 -28 -12z m132 -94 c53 -47 96 -89 96 -94 0 -14 -192
-181 -203 -177 -26 8 -14 29 48 83 36 32 65 61 65 66 0 4 -159 9 -352 10 -306
3 -353 5 -353 18 0 13 47 15 353 18 193 1 352 6 352 10 0 4 -30 34 -67 68 -42
38 -64 65 -59 72 4 7 11 12 15 12 5 0 52 -39 105 -86z"/>
</g>
</svg>
