<svg width="70" height="70" viewBox="0 0 70 70" fill="none" xmlns="http://www.w3.org/2000/svg">
<path d="M11.34 15.155C11.27 15.4 11.235 17.255 11.27 19.285L11.375 22.925H35H58.625V18.9V14.875L35.07 14.77C15.785 14.7 11.515 14.77 11.34 15.155ZM57.4 18.9V21.7H35C12.845 21.7 12.6 21.7 12.6 21C12.6 20.3 12.845 20.3 32.2 20.3C45.045 20.3 51.8 20.195 51.8 19.95C51.8 19.705 45.045 19.6 32.2 19.6H12.6V17.85V16.1H35H57.4V18.9Z" fill="black"/>
<path d="M53.2 19.95C53.2 20.125 53.69 20.3 54.25 20.3C54.845 20.3 55.3 20.125 55.3 19.95C55.3 19.74 54.845 19.6 54.25 19.6C53.69 19.6 53.2 19.74 53.2 19.95Z" fill="black"/>
<path d="M11.34 31.255C11.27 31.5 11.235 33.355 11.27 35.385L11.375 39.025H35H58.625V35V30.975L35.07 30.87C15.785 30.8 11.515 30.87 11.34 31.255ZM57.4 35V37.8H35H12.6V35V32.2H35H57.4V35Z" fill="black"/>
<path d="M15.4 36.05C15.4 36.295 21 36.4 31.5 36.4C42 36.4 47.6 36.295 47.6 36.05C47.6 35.805 42 35.7 31.5 35.7C21 35.7 15.4 35.805 15.4 36.05Z" fill="black"/>
<path d="M49 36.05C49 36.225 49.63 36.4 50.4 36.4C51.17 36.4 51.8 36.225 51.8 36.05C51.8 35.84 51.17 35.7 50.4 35.7C49.63 35.7 49 35.84 49 36.05Z" fill="black"/>
<path d="M53.2 36.05C53.2 36.225 53.69 36.4 54.25 36.4C54.845 36.4 55.3 36.225 55.3 36.05C55.3 35.84 54.845 35.7 54.25 35.7C53.69 35.7 53.2 35.84 53.2 36.05Z" fill="black"/>
<path d="M11.34 47.355C11.27 47.6 11.235 49.455 11.27 51.485L11.375 55.125H35H58.625V51.1V47.075L35.07 46.97C15.785 46.9 11.515 46.97 11.34 47.355ZM57.4 50.05V51.8H37.8C24.955 51.8 18.2 51.905 18.2 52.15C18.2 52.395 24.955 52.5 37.8 52.5C57.155 52.5 57.4 52.5 57.4 53.2C57.4 53.9 57.155 53.9 35 53.9H12.6V51.1V48.3H35H57.4V50.05Z" fill="black"/>
<path d="M14.7 52.15C14.7 52.325 15.19 52.5 15.75 52.5C16.345 52.5 16.8 52.325 16.8 52.15C16.8 51.94 16.345 51.8 15.75 51.8C15.19 51.8 14.7 51.94 14.7 52.15Z" fill="black"/>
</svg>
