<svg width="130" height="60" viewBox="0 0 130 60" fill="none" xmlns="http://www.w3.org/2000/svg">
<g clip-path="url(#clip0_25_9462)">
<path d="M120 0H10C4.47715 0 0 4.47715 0 10V50C0 55.5228 4.47715 60 10 60H120C125.523 60 130 55.5228 130 50V10C130 4.47715 125.523 0 120 0Z" fill="white"/>
<path d="M103.049 31.7135C109.081 27.1679 110.941 19.4624 107.203 14.5028C103.466 9.54317 95.5461 9.20752 89.5141 13.7531C83.4822 18.2987 81.6221 26.0042 85.3596 30.9638C89.0971 35.9235 97.0168 36.2591 103.049 31.7135Z" fill="white"/>
<path d="M69.9763 20.2736L101.147 -3.21606L122.716 25.4061L91.5455 48.8958L69.9763 20.2736Z" fill="white"/>
<path d="M103.049 31.7135C109.081 27.1679 110.941 19.4624 107.203 14.5028C103.466 9.54317 95.5461 9.20752 89.5141 13.7531C83.4822 18.2987 81.6221 26.0042 85.3596 30.9638C89.0971 35.9235 97.0168 36.2591 103.049 31.7135Z" fill="white"/>
<path d="M78.6562 22.1848L100.483 5.73718L114.03 23.7152L92.2036 40.1628L78.6562 22.1848Z" fill="white"/>
<path d="M103.049 31.7135C109.081 27.1679 110.941 19.4624 107.203 14.5028C103.466 9.54317 95.5461 9.20752 89.5141 13.7531C83.4822 18.2987 81.6221 26.0042 85.3596 30.9638C89.0971 35.9235 97.0168 36.2591 103.049 31.7135Z" fill="white" stroke="white" stroke-width="4" stroke-miterlimit="10"/>
<path d="M78.6562 22.1848L100.483 5.73718L114.03 23.7152L92.2036 40.1628L78.6562 22.1848Z" stroke="white" stroke-width="4" stroke-miterlimit="10"/>
<path d="M103.049 31.7135C109.081 27.1679 110.941 19.4624 107.203 14.5028C103.466 9.54317 95.5461 9.20752 89.5141 13.7531C83.4822 18.2987 81.6221 26.0042 85.3596 30.9638C89.0971 35.9235 97.0168 36.2591 103.049 31.7135Z" stroke="white" stroke-width="4" stroke-miterlimit="10"/>
<path d="M78.6562 22.1848L100.483 5.73718L114.03 23.7152L92.2036 40.1628L78.6562 22.1848Z" fill="white"/>
<path d="M103.049 31.7135C109.081 27.1679 110.941 19.4624 107.203 14.5028C103.466 9.54317 95.5461 9.20752 89.5141 13.7531C83.4822 18.2987 81.6221 26.0042 85.3596 30.9638C89.0971 35.9235 97.0168 36.2591 103.049 31.7135Z" fill="white" stroke="white" stroke-width="4" stroke-miterlimit="10"/>
<path d="M78.6562 22.1848L100.483 5.73718L114.03 23.7152L92.2036 40.1628L78.6562 22.1848Z" stroke="white" stroke-width="4" stroke-miterlimit="10"/>
<path d="M69.9763 20.2736L101.147 -3.21606L122.716 25.4062L91.5455 48.8958L69.9763 20.2736Z" stroke="white" stroke-width="4" stroke-miterlimit="10"/>
<path d="M103.049 31.7135C109.081 27.1679 110.941 19.4624 107.203 14.5028C103.466 9.54317 95.5461 9.20752 89.5141 13.7531C83.4822 18.2987 81.6221 26.0042 85.3596 30.9638C89.0971 35.9235 97.0168 36.2591 103.049 31.7135Z" stroke="black" stroke-width="4" stroke-miterlimit="10"/>
<path d="M90.1807 21.3066L92.3515 19.7871L95.0215 23.5859C95.4774 24.1938 95.8247 24.845 96.0852 25.5613C96.2371 26.104 96.1937 26.6901 95.9766 27.2111C95.6945 27.8624 95.2386 28.405 94.6308 28.7958C93.9144 29.2951 93.3066 29.5773 92.7856 29.6641C92.2863 29.7509 91.7654 29.6641 91.2878 29.447C90.7668 29.1865 90.3109 28.8175 89.9636 28.3399L91.8305 26.6033C91.9824 26.8421 92.1778 27.0592 92.3949 27.2328C92.5468 27.3414 92.7205 27.4065 92.9159 27.4065C93.0678 27.4065 93.2198 27.3414 93.3283 27.2545C93.5454 27.1243 93.6973 26.8638 93.6756 26.6033C93.6105 26.2343 93.4586 25.8652 93.2198 25.583L90.1807 21.3066ZM96.693 23.7162L98.6684 22.1532C98.8855 22.4137 99.1677 22.6091 99.4716 22.7176C99.9057 22.8479 100.362 22.761 100.731 22.4788C100.991 22.3052 101.208 22.0664 101.295 21.7625C101.425 21.3718 101.208 20.9376 100.817 20.8074C100.752 20.7857 100.687 20.7639 100.622 20.7639C100.362 20.7422 99.9057 20.8508 99.2328 21.133C98.1257 21.5888 97.2574 21.7625 96.6062 21.6974C95.9766 21.6322 95.3905 21.3066 95.0432 20.7639C94.7827 20.3949 94.6525 19.9608 94.6308 19.5266C94.6308 19.0273 94.761 18.5281 95.0432 18.1156C95.4557 17.5295 95.9549 17.0302 96.5628 16.6395C97.4745 16.01 98.2777 15.7061 98.9723 15.7061C99.667 15.7061 100.318 16.0317 100.926 16.7046L98.9723 18.2459C98.5816 17.7466 97.8435 17.638 97.3442 18.0288L97.2791 18.0939C97.062 18.2241 96.9101 18.4195 96.8232 18.6583C96.7581 18.832 96.8015 19.0273 96.9101 19.1793C96.9969 19.2878 97.1272 19.3747 97.2791 19.3747C97.4528 19.3964 97.7567 19.3095 98.1908 19.1142C99.2762 18.6583 100.101 18.3978 100.666 18.311C101.143 18.2241 101.642 18.2676 102.098 18.4629C102.511 18.6366 102.858 18.9405 103.097 19.3095C103.401 19.7437 103.574 20.2647 103.596 20.8074C103.618 21.3718 103.466 21.9144 103.162 22.392C102.771 22.9781 102.272 23.4774 101.686 23.8681C100.492 24.693 99.515 25.0404 98.7335 24.9101C97.8869 24.7799 97.1923 24.3457 96.693 23.7162Z" fill="black"/>
<path d="M66.9537 22.7612L72.6628 22.3922C72.7931 23.3256 73.0318 24.0203 73.4226 24.5196C74.0521 25.301 74.9204 25.6918 76.0709 25.6918C76.9175 25.6918 77.5905 25.4964 78.0463 25.084C78.4805 24.7584 78.741 24.2374 78.741 23.6947C78.741 23.1737 78.5022 22.6744 78.0897 22.3488C77.6556 21.9581 76.6353 21.5673 75.029 21.22C72.4023 20.6339 70.5138 19.8524 69.4067 18.8539C68.2996 17.9204 67.67 16.5529 67.7135 15.0984C67.7135 14.0999 68.0174 13.1013 68.5818 12.2764C69.233 11.343 70.123 10.605 71.1867 10.1925C72.3372 9.69323 73.9436 9.43274 75.9624 9.43274C78.437 9.43274 80.3256 9.8886 81.6281 10.822C82.9305 11.7338 83.712 13.2099 83.9508 15.2287L78.3068 15.5543C78.1549 14.686 77.8509 14.0565 77.3517 13.644C76.8524 13.2316 76.2012 13.0362 75.3546 13.0362C74.6599 13.0362 74.1389 13.1882 73.7916 13.4704C73.466 13.7309 73.2489 14.1216 73.2706 14.5557C73.2706 14.8814 73.4443 15.1853 73.7048 15.3806C73.987 15.6411 74.6599 15.8799 75.7236 16.097C78.3502 16.6614 80.2171 17.2258 81.3676 17.8119C82.5181 18.398 83.343 19.1144 83.8423 19.961C84.3633 20.8293 84.6237 21.8278 84.602 22.8481C84.602 24.0637 84.2547 25.2793 83.5601 26.2996C82.8437 27.3633 81.8452 28.1882 80.6729 28.6874C79.4356 29.2301 77.8727 29.5123 76.0058 29.5123C72.7062 29.5123 70.4269 28.8828 69.1462 27.6021C67.8654 26.3213 67.1056 24.7149 66.9537 22.7612ZM6.36758 29.1867V9.78006H16.3748C18.22 9.78006 19.6527 9.93202 20.6295 10.2576C21.5847 10.5615 22.4313 11.1911 22.9957 12.0377C23.6252 12.9711 23.9291 14.0565 23.9074 15.1853C23.9725 17.0955 22.9957 18.919 21.3242 19.8741C20.6729 20.2432 19.9566 20.5037 19.2185 20.6339C19.7612 20.7859 20.3039 21.0463 20.7815 21.3503C21.1505 21.6542 21.4544 22.0015 21.7366 22.3705C22.0622 22.7395 22.3444 23.152 22.5832 23.5861L25.492 29.2084H18.6758L15.4631 23.2388C15.0507 22.479 14.7033 21.9798 14.3777 21.741C13.9436 21.4371 13.4226 21.2851 12.9016 21.2851H12.3806V29.165H6.36758V29.1867ZM12.3806 17.6382H14.9204C15.4631 17.5948 15.9841 17.508 16.5051 17.3777C16.8958 17.3126 17.2431 17.0955 17.4819 16.7699C18.068 15.9885 17.9812 14.8814 17.2648 14.2084C16.8741 13.8828 16.1143 13.7092 15.0289 13.7092H12.3806V17.6382ZM5 45.8148L10.7091 45.4458C10.8394 46.3792 11.0781 47.0738 11.4689 47.5731C12.0767 48.3546 12.9667 48.767 14.1172 48.767C14.9638 48.767 15.6368 48.5717 16.0926 48.1592C16.5268 47.8119 16.7873 47.3126 16.7873 46.7699C16.7873 46.2489 16.5485 45.7497 16.136 45.4241C15.7019 45.0333 14.6816 44.6426 13.0535 44.2953C10.4269 43.7091 8.53835 42.9277 7.43126 41.9291C6.32417 40.9957 5.69465 39.6281 5.73806 38.1737C5.73806 37.1751 6.04197 36.1766 6.60637 35.3517C7.2576 34.4183 8.14761 33.6802 9.21129 33.2678C10.3618 32.7685 11.9682 32.508 13.987 32.508C16.4617 32.508 18.3502 32.9639 19.6527 33.8973C20.9551 34.8307 21.7149 36.2851 21.9537 38.3039L16.3097 38.6296C16.1577 37.7612 15.8538 37.1317 15.3546 36.7193C14.877 36.3068 14.2041 36.1115 13.3575 36.1332C12.6628 36.1332 12.1418 36.2851 11.7945 36.589C11.4472 36.8495 11.2518 37.2403 11.2735 37.6744C11.2735 38 11.4472 38.3039 11.7077 38.4993C11.9899 38.7598 12.6628 38.9986 13.7265 39.2157C16.3531 39.7801 18.22 40.3445 19.3705 40.9306C20.521 41.5167 21.3459 42.233 21.8452 43.0796C22.3661 43.9479 22.6266 44.9465 22.6266 45.945C22.6266 47.1607 22.2576 48.3546 21.5847 49.3749C20.8683 50.4385 19.8698 51.2634 18.6975 51.7627C17.4602 52.3054 15.8973 52.5876 14.0304 52.5876C10.7308 52.5876 8.45152 51.9581 7.17077 50.6773C5.89001 49.3749 5.17366 47.7685 5 45.8148Z" fill="black"/>
<path d="M63.8928 42.5369C63.8928 39.3675 64.7828 36.8929 66.5412 35.1345C68.2995 33.3762 70.7742 32.4862 73.9218 32.4862C77.1562 32.4862 79.6309 33.3545 81.3892 35.0911C83.1475 36.8277 84.0158 39.259 84.0158 42.3849C84.0158 44.6642 83.6251 46.5094 82.8653 47.9638C82.1273 49.3965 80.9768 50.5687 79.5658 51.3502C78.1113 52.1534 76.3096 52.5658 74.1606 52.5658C71.9681 52.5658 70.1663 52.2185 68.7336 51.5238C67.2575 50.7858 66.0419 49.6353 65.2387 48.2243C64.3487 46.7047 63.8928 44.8162 63.8928 42.5369ZM69.8841 42.5586C69.8841 44.5123 70.2532 45.9233 70.9695 46.7916C71.6859 47.6382 72.6844 48.0723 73.9435 48.0723C75.2242 48.0723 76.2228 47.6599 76.9391 46.8133C77.6555 45.9667 78.0028 44.4688 78.0028 42.2981C78.0028 40.4746 77.6338 39.1288 76.8957 38.3039C76.1577 37.4573 75.1591 37.0448 73.9001 37.0448C72.793 37.0014 71.7293 37.479 70.9912 38.3256C70.2532 39.1722 69.8841 40.5832 69.8841 42.5586ZM90.1591 42.5369C90.1591 39.3675 91.0491 36.8929 92.8074 35.1345C94.5658 33.3762 97.0404 32.4862 100.188 32.4862C103.422 32.4862 105.919 33.3545 107.655 35.0911C109.392 36.8277 110.282 39.259 110.282 42.3849C110.282 44.6642 109.891 46.5094 109.132 47.9638C108.394 49.3965 107.243 50.5687 105.832 51.3502C104.378 52.1534 102.576 52.5658 100.427 52.5658C98.2344 52.5658 96.4326 52.2185 94.9999 51.5238C93.5238 50.7858 92.3082 49.6353 91.505 48.2243C90.615 46.7047 90.1591 44.8162 90.1591 42.5369ZM96.1504 42.5586C96.1504 44.5123 96.5195 45.9233 97.2358 46.7916C97.9522 47.6382 98.9507 48.0723 100.21 48.0723C101.491 48.0723 102.489 47.6599 103.205 46.8133C103.922 45.9667 104.269 44.4688 104.269 42.2981C104.269 40.4746 103.9 39.1288 103.162 38.3039C102.424 37.4573 101.425 37.0448 100.166 37.0448C99.0592 37.0014 97.9739 37.479 97.2575 38.3256C96.5195 39.1722 96.1504 40.5832 96.1504 42.5586Z" fill="black"/>
<path d="M33.8712 44.2953L39.1244 45.88C38.8422 47.2041 38.2561 48.4632 37.453 49.5703C36.7149 50.5471 35.738 51.3069 34.631 51.8062C33.5022 52.3055 32.0694 52.5659 30.3328 52.5659C28.2272 52.5659 26.4906 52.262 25.1664 51.6542C23.8205 51.0464 22.67 49.961 21.6932 48.4198C20.7163 46.8785 20.2388 44.9031 20.2388 42.4936C20.2388 39.2808 21.0854 36.8062 22.8003 35.0913C24.5152 33.3764 26.9247 32.5081 30.0506 32.5081C32.5036 32.5081 34.4139 33.0073 35.8249 33.9842C37.2142 34.9827 38.2561 36.5023 38.9508 38.5428L33.6541 39.715C33.5239 39.2591 33.3285 38.8033 33.068 38.4125C32.7424 37.9567 32.3299 37.6094 31.8307 37.3489C31.3314 37.0884 30.767 36.9798 30.2026 36.9798C28.835 36.9798 27.793 37.5225 27.0767 38.6296C26.534 39.4328 26.2518 40.7136 26.2518 42.4502C26.2518 44.5992 26.5774 46.0754 27.2286 46.8785C27.8799 47.6817 28.7916 48.0725 29.9855 48.0725C31.136 48.0725 32.0043 47.7468 32.5904 47.1173C33.1765 46.4444 33.6107 45.511 33.8712 44.2953ZM46.136 32.8337H52.1273V39.6282H58.6831V32.8337H64.7178V52.2403H58.6831V44.3822H52.1273V52.2403H46.136V32.8337Z" fill="black"/>
<path d="M109.653 32.8336H115.644V47.4646H125V52.2403H109.631V32.8336H109.653Z" fill="black"/>
</g>
<defs>
<clipPath id="clip0_25_9462">
<rect width="130" height="60" fill="white"/>
</clipPath>
</defs>
</svg>
