<svg width="100" height="101" viewBox="0 0 100 101" fill="none" xmlns="http://www.w3.org/2000/svg">
<path d="M62.7999 15.352C59.1999 17.5235 58.0999 21.513 59.9999 25.25C61.1499 27.5225 63.9999 29.29 66.5499 29.29C70.1499 29.29 73.9999 25.4015 73.9999 21.7655C73.9999 19.19 72.2499 16.3115 69.9999 15.15C67.3999 13.837 65.1999 13.8875 62.7999 15.352ZM68.9999 16.9175C70.5999 17.776 71.9999 19.998 71.9999 21.715C71.9999 24.3915 69.1499 27.27 66.4999 27.27C63.8499 27.27 60.9999 24.3915 60.9999 21.715C60.9999 20.0485 62.3999 17.776 63.8999 16.968C65.6499 15.958 67.1999 15.958 68.9999 16.9175Z" fill="black"/>
<path d="M35.25 27.7751C31.7 29.1386 28.5 30.6536 28.1 31.1586C26.6 33.2796 26.75 36.1076 28.5 37.8751C30.35 39.7436 31.85 39.6931 37.6 37.6731C42.7 35.8551 43.1 35.8046 45.45 36.3601L47.95 36.9661L44.7 43.4806C42.95 47.0661 39.95 52.1666 38.1 54.7926L34.75 59.5396H27.35C21.95 59.5901 19.6 59.7921 18.55 60.2971C15.25 62.0646 15.25 67.2156 18.55 68.9831C20.3 69.8921 37.45 69.9931 39.15 69.1346C39.75 68.8316 41.55 67.3166 43.1 65.7511L45.95 62.9736L50.7 65.8521L55.5 68.7306L54.8 70.0941C54.4 70.8516 52.95 73.4776 51.55 76.0026C50.15 78.4771 49 81.0526 49 81.6586C49 84.3856 51.4 86.8601 54 86.8601C56.5 86.8601 57.75 85.4966 62.15 77.6186C64.6 73.2756 66.7 69.2861 66.85 68.7306C67.4 66.6096 66.35 65.0441 61.4 60.1961L56.35 55.1966L58.6 51.0051L60.9 46.8136L62.7 49.5911C63.75 51.1061 65.1 52.6211 65.8 52.9746C67.5 53.7321 79.55 53.7321 81.25 52.9241C83.6 51.8636 84.6 48.7831 83.4 46.2076C82.45 44.0866 80.6 43.4301 75.4 43.4301H70.7L67 37.7741C64.6 34.1381 62.65 31.7141 61.6 31.1586C59.75 30.0476 44.25 25.2501 42.75 25.3006C42.2 25.3006 38.85 26.4116 35.25 27.7751ZM46.1 28.1791C46.7 28.7851 44.55 33.9361 43.8 33.6836C43.5 33.5826 40.8 34.3401 37.85 35.4006C34.85 36.5116 32.1 37.3701 31.7 37.3701C30.7 37.3701 29 35.5016 29 34.4411C29 32.6736 30.35 31.7141 36.25 29.5426C42.15 27.3206 44.9 26.9671 46.1 28.1791ZM53.95 30.5021C57 31.4111 60.05 32.5726 60.75 33.0271C61.45 33.4816 63.45 36.0571 65.25 38.7336L68.45 43.6321L66.1 45.2481L63.75 46.9146L62.5 45.3996C61.8 44.5916 61 43.9351 60.75 43.9351C60.45 43.9351 58.95 46.3086 57.35 49.2376C55.75 52.1666 54.2 54.5401 53.9 54.5401C53.3 54.5401 45.1 49.5406 44.7 48.9346C44.6 48.6821 45.85 45.8036 47.5 42.4201C49.15 39.0366 50.4 36.1076 50.25 35.9056C50.15 35.6531 49 35.1986 47.75 34.8956C46.5 34.5926 45.5 34.1886 45.5 34.0371C45.5 33.3301 47.65 28.7851 48 28.7851C48.2 28.7851 50.9 29.5426 53.95 30.5021ZM74.85 45.4501C79.35 45.4501 80.15 45.6016 81 46.4601C81.55 47.0156 82 47.9246 82 48.4801C82 49.0356 81.55 49.9446 81 50.5001C80.1 51.4091 79.35 51.5101 73.5 51.5101C67.2 51.5101 66.9 51.4596 65.75 50.2476C65.05 49.5911 64.5 48.6821 64.5 48.2781C64.5 47.2681 68.6 44.3896 69.25 44.9956C69.5 45.2481 72 45.4501 74.85 45.4501ZM49.45 53.2776C52.4 55.0956 55.75 57.5196 56.9 58.7316L59.05 60.9536L56.95 63.4786L54.8 66.0036L49.35 62.6706C43.7 59.2366 42 57.4691 42 54.9441C42 53.6311 43.4 49.9951 43.9 49.9951C44.05 49.9951 46.55 51.4596 49.45 53.2776ZM40.5 57.3681C40.5 57.7216 41.3 58.9336 42.25 59.9941L43.95 61.9636L42.6 63.2766L41.2 64.6401L38.8 62.4686L36.45 60.3476L38 58.1761C39.55 56.1561 40.5 55.8026 40.5 57.3681ZM39.95 64.8421C40.4 65.3976 40.3 65.7511 39.2 66.6096C37.95 67.6196 37.25 67.6701 28.95 67.6701C20.65 67.6701 19.95 67.6196 19 66.6601C17.8 65.4481 17.75 64.1856 18.7 62.8221C19.35 61.9636 20.25 61.8121 27.6 61.6101L35.75 61.3576L37.55 62.7211C38.55 63.4786 39.6 64.4381 39.95 64.8421ZM63.15 64.6401C64.2 65.7511 65 67.0641 65 67.5186C65 69.0336 56.35 83.9311 55.15 84.4866C53.6 85.1936 51.6 84.2341 51.2 82.5676C50.95 81.5576 51.65 79.9416 54.5 74.9421L58.05 68.5791L56.95 67.3671L55.9 66.2056L57.8 63.9836C60 61.4081 60.3 61.4081 63.15 64.6401Z" fill="black"/>
</svg>
