<svg width="70" height="70" viewBox="0 0 70 70" fill="none" xmlns="http://www.w3.org/2000/svg">
<path d="M31.675 12.25C31.185 13.02 32.025 13.3 35.105 13.3H38.325L26.075 25.55C16.31 35.315 13.93 37.87 14.28 38.22C14.63 38.57 17.185 36.19 26.95 26.425L39.165 14.21L39.27 17.5C39.34 20.195 39.48 20.825 39.9 20.825C40.355 20.825 40.425 20.09 40.425 16.45V12.075L36.155 11.97C33.495 11.9 31.815 12.005 31.675 12.25Z" fill="black"/>
<path d="M49.245 12.11C49.105 12.25 49 22.505 49 34.895V57.4H47.6H46.2L46.13 41.055L46.025 24.675H41.3H36.575L36.47 41.02L36.4 57.4H35H33.6L33.53 46.655L33.425 35.875H28.7H23.975L23.87 46.655L23.8 57.4H22.4H21L20.93 51.555L20.825 45.675H16.1H11.375L11.27 51.52L11.2 57.365L9.87001 57.47C8.99501 57.54 8.57501 57.75 8.57501 58.1C8.57501 58.555 11.76 58.625 35 58.625C58.24 58.625 61.425 58.555 61.425 58.1C61.425 57.75 61.005 57.54 60.13 57.47L58.8 57.365L58.73 34.72L58.625 12.075L54.04 11.97C51.555 11.935 49.385 12.005 49.245 12.11ZM57.4 35.35V57.4H53.9H50.4V35.35V13.3H53.9H57.4V35.35ZM44.8 41.65V57.4H41.3H37.8V41.65V25.9H41.3H44.8V41.65ZM32.2 47.25V57.4H28.7H25.2V47.25V37.1H28.7H32.2V47.25ZM19.6 52.15V57.4H16.1H12.6V52.15V46.9H16.1H19.6V52.15Z" fill="black"/>
<path d="M51.8 15.75C51.8 16.31 51.975 16.8 52.15 16.8C52.36 16.8 52.5 16.31 52.5 15.75C52.5 15.155 52.36 14.7 52.15 14.7C51.975 14.7 51.8 15.155 51.8 15.75Z" fill="black"/>
<path d="M51.8 19.95C51.8 20.895 51.975 21.7 52.15 21.7C52.36 21.7 52.5 20.895 52.5 19.95C52.5 18.97 52.36 18.2 52.15 18.2C51.975 18.2 51.8 18.97 51.8 19.95Z" fill="black"/>
<path d="M51.8 39.55C51.8 50.295 51.905 56 52.15 56C52.395 56 52.5 50.295 52.5 39.55C52.5 28.805 52.395 23.1 52.15 23.1C51.905 23.1 51.8 28.805 51.8 39.55Z" fill="black"/>
<path d="M39.2 28.35C39.2 28.91 39.375 29.4 39.55 29.4C39.76 29.4 39.9 28.91 39.9 28.35C39.9 27.755 39.76 27.3 39.55 27.3C39.375 27.3 39.2 27.755 39.2 28.35Z" fill="black"/>
<path d="M39.2 32.55C39.2 33.495 39.375 34.3 39.55 34.3C39.76 34.3 39.9 33.495 39.9 32.55C39.9 31.57 39.76 30.8 39.55 30.8C39.375 30.8 39.2 31.57 39.2 32.55Z" fill="black"/>
<path d="M39.2 45.85C39.2 52.395 39.34 56 39.55 56C39.76 56 39.9 52.395 39.9 45.85C39.9 39.305 39.76 35.7 39.55 35.7C39.34 35.7 39.2 39.305 39.2 45.85Z" fill="black"/>
<path d="M26.6 39.55C26.6 40.11 26.775 40.6 26.95 40.6C27.16 40.6 27.3 40.11 27.3 39.55C27.3 38.955 27.16 38.5 26.95 38.5C26.775 38.5 26.6 38.955 26.6 39.55Z" fill="black"/>
<path d="M26.6 49C26.6 53.445 26.74 56 26.95 56C27.16 56 27.3 53.445 27.3 49C27.3 44.555 27.16 42 26.95 42C26.74 42 26.6 44.555 26.6 49Z" fill="black"/>
<path d="M14 49.35C14 49.91 14.175 50.4 14.35 50.4C14.56 50.4 14.7 49.91 14.7 49.35C14.7 48.755 14.56 48.3 14.35 48.3C14.175 48.3 14 48.755 14 49.35Z" fill="black"/>
<path d="M14 54.25C14 55.65 14.14 56.7 14.35 56.7C14.56 56.7 14.7 55.65 14.7 54.25C14.7 52.85 14.56 51.8 14.35 51.8C14.14 51.8 14 52.85 14 54.25Z" fill="black"/>
</svg>
