<svg width="70" height="70" viewBox="0 0 70 70" fill="none" xmlns="http://www.w3.org/2000/svg">
<path d="M13.125 15.05C12.215 16.555 11.935 16.8 10.955 16.8C9.38002 16.8 8.08502 17.465 7.49002 18.585C6.82502 19.88 6.75502 51.24 7.42002 52.675C8.26002 54.495 8.85502 54.6 20.335 54.6H30.87L31.885 55.475C33.81 57.05 36.89 57.05 38.815 55.475L39.83 54.6H50.365C61.845 54.6 62.44 54.495 63.28 52.675C63.945 51.24 63.875 19.88 63.21 18.585C62.615 17.465 61.32 16.8 59.745 16.8C58.765 16.8 58.485 16.555 57.575 15.05L56.56 13.3H54.53C48.93 13.3 40.705 14.84 37.135 16.555L35.35 17.395L33.565 16.555C29.995 14.84 21.77 13.3 16.17 13.3H14.14L13.125 15.05ZM21.385 14.35C25.9 14.805 30.275 15.82 32.97 17.045L35 17.955V29.96C35 37.765 35.14 42 35.35 42C35.56 42 35.7 37.765 35.7 29.96V17.955L37.73 17.045C41.335 15.435 49.175 14 54.46 14H56V30.03V46.06L50.855 46.48C46.165 46.865 40.565 47.88 40.005 48.44C39.48 48.93 40.25 48.895 42.735 48.3C45.71 47.6 51.52 46.9 54.355 46.9C56.105 46.9 56.28 46.97 57.505 48.44C58.205 49.315 58.8 50.085 58.8 50.19C58.8 50.295 53.62 50.4 47.285 50.4H35.77L33.74 49.49C30.345 47.985 25.41 46.9 19.88 46.48L14.7 46.06V30.03V14H16.24C17.08 14 19.39 14.175 21.385 14.35ZM14 30.73V46.375L12.6 48.09L11.2 49.77V34.545V19.285L12.53 17.185C13.23 15.995 13.86 15.05 13.93 15.05C13.965 15.05 14 22.085 14 30.73ZM59.5 34.51V49.77L58.1 48.09L56.7 46.375V30.625V14.875L58.1 17.08L59.5 19.285V34.51ZM10.57 34.65L10.465 51.1H21.175C28.175 51.1 31.85 51.24 31.85 51.45C31.85 52.08 34.09 53.2 35.35 53.2C36.61 53.2 38.85 52.08 38.85 51.45C38.85 51.24 42.525 51.1 49.525 51.1H60.235L60.13 34.65C60.025 17.22 60.025 17.325 61.6 18.9C62.265 19.565 62.3 20.055 62.3 35.7C62.3 51.345 62.265 51.835 61.6 52.5C60.935 53.165 60.445 53.2 49.91 53.2C39.62 53.2 38.85 53.235 38.43 53.83C37.065 55.79 33.635 55.79 32.27 53.83C31.85 53.235 31.08 53.2 20.79 53.2C10.255 53.2 9.76502 53.165 9.10002 52.5C8.43502 51.835 8.40002 51.345 8.40002 35.7C8.40002 20.055 8.43502 19.565 9.10002 18.9C10.675 17.325 10.675 17.22 10.57 34.65ZM21.77 47.285C25.725 47.705 31.22 49 32.795 49.84C33.705 50.33 32.9 50.365 22.855 50.4C16.835 50.4 11.9 50.295 11.9 50.19C11.9 50.085 12.495 49.315 13.195 48.44C14.42 46.97 14.595 46.9 16.345 46.9C17.36 46.9 19.81 47.075 21.77 47.285ZM37.695 51.695C37.275 52.115 36.54 52.325 35.35 52.325C34.16 52.325 33.425 52.115 33.005 51.695C32.445 51.135 32.55 51.1 35.35 51.1C38.15 51.1 38.255 51.135 37.695 51.695Z" fill="black"/>
<path d="M18.2 17.815C18.2 17.955 19.25 18.2 20.58 18.34C21.875 18.48 23.625 18.69 24.5 18.795C25.585 18.935 25.97 18.865 25.725 18.62C25.55 18.41 24.15 18.095 22.645 17.885C19.32 17.43 18.2 17.395 18.2 17.815Z" fill="black"/>
<path d="M46.725 18.06C43.12 18.62 38.5 19.915 38.5 20.335C38.5 20.755 38.325 20.755 42.035 19.775C43.82 19.32 46.9 18.725 48.895 18.48C50.89 18.27 52.5 17.955 52.5 17.78C52.5 17.395 50.435 17.5 46.725 18.06Z" fill="black"/>
<path d="M27.51 19.25C28 19.74 30.1 20.09 30.1 19.67C30.1 19.495 29.61 19.25 29.015 19.11C27.44 18.795 27.09 18.83 27.51 19.25Z" fill="black"/>
<path d="M30.975 20.3C31.08 20.475 31.43 20.65 31.71 20.65C31.99 20.65 32.2 20.475 32.2 20.3C32.2 20.09 31.885 19.95 31.465 19.95C31.08 19.95 30.87 20.09 30.975 20.3Z" fill="black"/>
<path d="M18.2 22.68C18.2 22.855 19.81 23.17 21.805 23.38C23.8 23.625 26.88 24.22 28.665 24.675C32.375 25.655 32.2 25.655 32.2 25.235C32.2 24.78 27.475 23.52 23.625 22.925C19.67 22.33 18.2 22.26 18.2 22.68Z" fill="black"/>
<path d="M49.8751 22.75C49.7351 22.96 50.2251 23.1 51.0651 23.1C51.8701 23.1 52.5001 22.925 52.5001 22.75C52.5001 22.54 51.9751 22.4 51.3101 22.4C50.6451 22.4 49.9801 22.54 49.8751 22.75Z" fill="black"/>
<path d="M46.305 22.995C45.85 23.065 45.5 23.31 45.5 23.52C45.5 23.73 45.92 23.8 46.585 23.66C47.18 23.555 47.81 23.45 47.985 23.45C48.16 23.45 48.3 23.275 48.3 23.1C48.3 22.75 47.74 22.715 46.305 22.995Z" fill="black"/>
<path d="M40.355 24.395C39.34 24.71 38.5 25.06 38.5 25.235C38.5 25.41 38.605 25.55 38.71 25.55C39.27 25.55 42.91 24.395 43.225 24.115C43.715 23.66 42.455 23.765 40.355 24.395Z" fill="black"/>
<path d="M18.2 27.545C18.2 27.895 22.05 28.455 22.365 28.175C22.68 27.825 22.05 27.615 20.16 27.405C18.935 27.265 18.2 27.335 18.2 27.545Z" fill="black"/>
<path d="M46.725 27.86C43.12 28.42 38.5 29.715 38.5 30.135C38.5 30.555 38.325 30.555 42.035 29.575C43.82 29.12 46.9 28.525 48.895 28.28C50.89 28.07 52.5 27.755 52.5 27.58C52.5 27.195 50.435 27.3 46.725 27.86Z" fill="black"/>
<path d="M24.5 28.245C24.5 28.42 26.04 28.945 27.93 29.4C29.785 29.89 31.535 30.31 31.78 30.38C31.99 30.45 32.2 30.345 32.2 30.17C32.2 29.855 28.14 28.56 25.83 28.14C25.095 28.035 24.5 28.07 24.5 28.245Z" fill="black"/>
<path d="M18.2 32.48C18.2 32.655 19.81 32.97 21.805 33.18C23.8 33.425 26.88 34.02 28.665 34.475C32.375 35.455 32.2 35.455 32.2 35.035C32.2 34.58 27.475 33.32 23.625 32.725C19.67 32.13 18.2 32.06 18.2 32.48Z" fill="black"/>
<path d="M46.76 32.76C45.045 33.005 43.575 33.32 43.47 33.425C42.98 33.915 43.925 33.915 47.11 33.425C49 33.145 50.995 32.9 51.555 32.9C52.08 32.9 52.5 32.725 52.5 32.55C52.5 32.095 50.575 32.165 46.76 32.76Z" fill="black"/>
<path d="M39.655 34.37C38.605 34.72 38.045 35.35 38.815 35.35C39.48 35.35 41.3 34.545 41.3 34.265C41.3 33.88 41.125 33.915 39.655 34.37Z" fill="black"/>
<path d="M18.2 37.345C18.2 37.52 19.81 37.87 21.805 38.115C23.765 38.325 25.795 38.64 26.355 38.745C26.88 38.85 27.3 38.78 27.3 38.57C27.3 38.185 24.395 37.625 20.58 37.24C19.11 37.1 18.2 37.135 18.2 37.345Z" fill="black"/>
<path d="M46.725 37.66C43.12 38.22 38.5 39.515 38.5 39.935C38.5 40.355 38.325 40.355 42.035 39.375C43.82 38.92 46.9 38.325 48.895 38.08C50.89 37.87 52.5 37.555 52.5 37.38C52.5 36.995 50.435 37.1 46.725 37.66Z" fill="black"/>
<path d="M29.4 39.13C29.4 39.445 31.185 40.25 31.885 40.25C32.55 40.25 32.13 39.62 31.36 39.41C30.905 39.305 30.275 39.095 29.96 38.99C29.645 38.885 29.4 38.92 29.4 39.13Z" fill="black"/>
<path d="M18.2 42.28C18.2 42.455 19.81 42.77 21.805 42.98C23.8 43.225 26.88 43.82 28.665 44.275C32.375 45.255 32.2 45.255 32.2 44.835C32.2 44.38 27.475 43.12 23.625 42.525C19.67 41.93 18.2 41.86 18.2 42.28Z" fill="black"/>
<path d="M46.725 42.56C43.12 43.12 38.5 44.415 38.5 44.835C38.5 45.255 38.325 45.255 42.035 44.275C43.82 43.82 46.9 43.225 48.895 42.98C50.89 42.77 52.5 42.455 52.5 42.28C52.5 41.895 50.435 42 46.725 42.56Z" fill="black"/>
<path d="M35 44.45C35 45.01 35.175 45.5 35.35 45.5C35.56 45.5 35.7 45.01 35.7 44.45C35.7 43.855 35.56 43.4 35.35 43.4C35.175 43.4 35 43.855 35 44.45Z" fill="black"/>
<path d="M35 47.6C35 47.985 35.175 48.3 35.35 48.3C35.56 48.3 35.7 47.985 35.7 47.6C35.7 47.215 35.56 46.9 35.35 46.9C35.175 46.9 35 47.215 35 47.6Z" fill="black"/>
</svg>
