<svg width="250" height="250" viewBox="0 0 250 250" fill="none" xmlns="http://www.w3.org/2000/svg">
<path opacity="0.743" fill-rule="evenodd" clip-rule="evenodd" d="M111.875 36.875C131.418 33.4725 148.293 38.4725 162.5 51.875C170.699 63.0043 173.824 75.5043 171.875 89.375C181.426 90.4009 185.801 95.8175 185 105.625C189.109 111.227 190.359 117.477 188.75 124.375C187.249 127.386 185.166 129.886 182.5 131.875C181.518 138.906 177.56 143.49 170.625 145.625C167.999 150.653 163.833 153.153 158.125 153.125C154.736 157.765 150.57 161.515 145.625 164.375C143.863 167.436 144.28 170.145 146.875 172.5C157.433 176.321 167.849 180.488 178.125 185C188.111 192.248 192.695 202.04 191.875 214.375C146.875 214.375 101.875 214.375 56.875 214.375C56.0549 202.04 60.6381 192.248 70.625 185C81.7965 180.348 92.8383 175.556 103.75 170.625C104.747 168.426 104.539 166.343 103.125 164.375C90.6003 157.079 84.142 146.246 83.75 131.875C81.8598 130.929 80.1931 129.679 78.75 128.125C75.0834 120.133 73.8334 111.8 75 103.125C76.1281 101.623 77.5865 100.582 79.375 100C72.4181 78.6605 77.0015 60.3272 93.125 45C99.1124 41.4167 105.362 38.7084 111.875 36.875ZM111.875 40.625C131.455 37.1228 147.912 42.5394 161.25 56.875C168.794 70.5669 170.044 84.7335 165 99.375C163.485 90.7165 159.526 83.4249 153.125 77.5C148.426 75.1083 143.426 74.0667 138.125 74.375C128.959 76.0417 119.792 76.0417 110.625 74.375C101.392 73.4932 94.1 76.8265 88.75 84.375C86.6999 89.2402 85.0331 94.2402 83.75 99.375C74.8745 70.7055 84.2495 51.1222 111.875 40.625ZM103.125 78.125C114.804 79.2942 126.471 79.2942 138.125 78.125C152.011 78.2574 159.511 85.3408 160.625 99.375C154.776 99.1678 148.944 99.376 143.125 100C136.969 102.261 130.719 104.136 124.375 105.625C118.032 104.136 111.782 102.261 105.625 100C99.8065 99.376 93.9731 99.1678 88.125 99.375C89.2 89.2408 94.2 82.1574 103.125 78.125ZM163.125 146.875C163.995 141.935 164.62 136.935 165 131.875C170.161 127.813 173.077 122.396 173.75 115.625C174.584 111.458 174.584 107.292 173.75 103.125C172.621 101.623 171.164 100.582 169.375 100C171.278 91.599 174.819 90.974 180 98.125C179.661 103.895 181.329 108.895 185 113.125C187.105 120.472 185.023 126.306 178.75 130.625C178.3 133.26 177.466 135.76 176.25 138.125C170.948 139.928 166.573 142.844 163.125 146.875ZM93.125 101.875C101.509 102.41 109.425 104.702 116.875 108.75C118.419 115.233 115.919 119.817 109.375 122.5C97.9333 124.609 91.6833 119.818 90.625 108.125C90.9056 105.682 91.7389 103.598 93.125 101.875ZM154.375 101.875C159.839 109.514 158.589 116.389 150.625 122.5C142.43 124.846 135.971 122.554 131.25 115.625C130.321 113.199 130.53 110.908 131.875 108.75C139.059 104.879 146.559 102.587 154.375 101.875ZM80.625 106.875C83.0664 115.779 88.483 122.237 96.875 126.25C109.781 130.01 118.115 125.635 121.875 113.125C123.542 113.125 125.209 113.125 126.875 113.125C129.033 122.364 134.866 126.948 144.375 126.875C156.778 125.948 164.486 119.281 167.5 106.875C167.77 112.684 166.729 118.309 164.375 123.75C163.628 125.376 162.378 126.419 160.625 126.875C160.324 139.768 154.908 149.976 144.375 157.5C131.041 168.334 117.708 168.334 104.375 157.5C93.8429 149.976 88.4263 139.768 88.125 126.875C84.7744 125.006 82.8994 122.09 82.5 118.125C81.3084 114.46 80.6834 110.71 80.625 106.875ZM109.375 165.625C119.167 170.59 128.959 170.59 138.75 165.625C137.185 173.641 140.31 178.433 148.125 180C148.412 185.679 146.121 190.47 141.25 194.375C136.397 189.108 132.023 183.483 128.125 177.5C129.171 176.236 129.588 174.778 129.375 173.125C127.723 172.913 126.264 173.329 125 174.375C120.737 173.384 116.362 172.759 111.875 172.5C109.76 170.749 108.927 168.458 109.375 165.625ZM108.125 175.625C112.234 176.451 116.401 177.076 120.625 177.5C116.728 183.483 112.353 189.108 107.5 194.375C103.89 190.348 100.765 185.973 98.125 181.25C102.041 180.175 105.374 178.3 108.125 175.625ZM123.125 180.625C126.551 181.799 129.051 184.091 130.625 187.5C126.459 188.334 122.292 188.334 118.125 187.5C119.956 185.283 121.623 182.99 123.125 180.625ZM90.625 183.125C92.2776 182.913 93.7359 183.329 95 184.375C97.1174 192.673 98.9924 201.006 100.625 209.375C88.125 209.375 75.625 209.375 63.125 209.375C63.9965 202.01 67.3299 195.968 73.125 191.25C78.9216 188.139 84.755 185.43 90.625 183.125ZM154.375 183.125C164.796 184.899 173.755 189.481 181.25 196.875C183.794 200.701 185.251 204.869 185.625 209.375C173.125 209.375 160.625 209.375 148.125 209.375C149.736 200.483 151.819 191.733 154.375 183.125ZM115.625 190.625C116.371 190.919 116.788 191.544 116.875 192.5C113.946 197.759 112.28 203.384 111.875 209.375C109.375 209.375 106.875 209.375 104.375 209.375C103.524 204.754 102.899 200.17 102.5 195.625C103.896 197.655 105.771 198.905 108.125 199.375C111.516 197.233 114.016 194.316 115.625 190.625ZM131.875 190.625C134.349 193.933 137.265 196.849 140.625 199.375C142.979 198.905 144.854 197.655 146.25 195.625C145.851 200.17 145.226 204.754 144.375 209.375C141.875 209.375 139.375 209.375 136.875 209.375C136.178 202.833 134.511 196.583 131.875 190.625ZM121.875 191.875C123.93 191.608 125.805 192.025 127.5 193.125C130.72 198.094 132.595 203.51 133.125 209.375C127.291 209.375 121.458 209.375 115.625 209.375C116.302 203.025 118.385 197.191 121.875 191.875Z" fill="black"/>
<path opacity="0.741" fill-rule="evenodd" clip-rule="evenodd" d="M91.875 91.875C101.042 91.875 110.208 91.875 119.375 91.875C119.375 93.5416 119.375 95.2084 119.375 96.875C110.616 96.4576 101.866 95.8326 93.125 95C92.1845 94.1615 91.7677 93.1199 91.875 91.875Z" fill="black"/>
<path opacity="0.74" fill-rule="evenodd" clip-rule="evenodd" d="M129.375 91.875C138.579 91.4618 147.746 91.8784 156.875 93.125C156.614 93.8575 156.196 94.4825 155.625 95C146.884 95.8327 138.134 96.4577 129.375 96.875C129.375 95.2084 129.375 93.5417 129.375 91.875Z" fill="black"/>
<path opacity="0.708" fill-rule="evenodd" clip-rule="evenodd" d="M103.125 106.875C105.991 106.555 108.699 106.971 111.25 108.125C112.222 111.787 112.013 115.329 110.625 118.75C103.632 121.142 100.924 118.85 102.5 111.875C103.616 113.389 104.658 113.389 105.625 111.875C102.428 110.978 101.594 109.311 103.125 106.875Z" fill="black"/>
<path opacity="0.708" fill-rule="evenodd" clip-rule="evenodd" d="M138.125 106.875C140.99 106.555 143.699 106.971 146.25 108.125C147.221 111.787 147.013 115.329 145.625 118.75C138.633 121.142 135.924 118.85 137.5 111.875C138.616 113.389 139.658 113.389 140.625 111.875C137.428 110.978 136.594 109.311 138.125 106.875Z" fill="black"/>
<path opacity="0.661" fill-rule="evenodd" clip-rule="evenodd" d="M116.875 134.375C121.875 136.041 126.875 136.041 131.875 134.375C131.226 138.469 128.726 140.135 124.375 139.375C120.024 140.135 117.524 138.469 116.875 134.375Z" fill="black"/>
<path opacity="0.62" fill-rule="evenodd" clip-rule="evenodd" d="M104.375 144.375C117.07 149.284 129.779 149.284 142.5 144.375C143.125 144.791 143.75 145.209 144.375 145.625C138.755 150.691 132.089 152.774 124.375 151.875C117.62 152.523 111.37 151.064 105.625 147.5C104.684 146.661 104.268 145.62 104.375 144.375Z" fill="black"/>
<path opacity="0.586" fill-rule="evenodd" clip-rule="evenodd" d="M131.875 173.125C133.541 173.125 135.209 173.125 136.875 173.125C136.875 174.375 136.875 175.625 136.875 176.875C135.209 176.875 133.541 176.875 131.875 176.875C131.875 175.625 131.875 174.375 131.875 173.125Z" fill="black"/>
</svg>
