<svg width="250" height="250" viewBox="0 0 250 250" fill="none" xmlns="http://www.w3.org/2000/svg">
<path opacity="0.76" fill-rule="evenodd" clip-rule="evenodd" d="M113.125 36.875C118.437 37.5595 123.646 37.5595 128.75 36.875C132.892 38.5091 137.267 39.5508 141.875 40C145.289 43.4488 149.455 45.5321 154.375 46.25C155.904 48.8151 157.154 51.5235 158.125 54.375C160.926 55.0397 162.801 56.7064 163.75 59.375C167.391 66.4032 169.891 73.9033 171.25 81.875C172.359 86.7666 171.734 91.3499 169.375 95.625C174.171 100.417 175.63 106.251 173.75 113.125C173.077 119.896 170.161 125.312 165 129.375C165.056 135.537 163.806 141.371 161.25 146.875C155.965 153.404 150.34 159.446 144.375 165C144.299 167.139 145.132 168.805 146.875 170C157.432 173.821 167.849 177.988 178.125 182.5C188.111 189.747 192.695 199.54 191.875 211.875C146.875 211.875 101.875 211.875 56.875 211.875C56.0549 199.54 60.6381 189.747 70.625 182.5C81.7965 177.848 92.8382 173.056 103.75 168.125C104.747 165.926 104.539 163.842 103.125 161.875C90.6002 154.579 84.142 143.746 83.75 129.375C81.8597 128.429 80.1931 127.179 78.75 125.625C74.0882 115.936 73.4632 106.144 76.875 96.25C75.1846 93.4232 74.3512 90.2982 74.375 86.875C76.1227 81.6965 77.1644 76.2799 77.5 70.625C78.3614 69.5541 79.403 68.7209 80.625 68.125C81.4952 64.3045 82.537 60.5545 83.75 56.875C88.0437 54.9804 90.5437 51.647 91.25 46.875C98.7755 43.6398 106.067 40.3064 113.125 36.875ZM114.375 40.625C120.202 42.0666 126.035 42.2749 131.875 41.25C134.529 42.7421 137.446 43.5754 140.625 43.75C141.696 44.6114 142.529 45.653 143.125 46.875C150.149 46.6095 153.691 49.9429 153.75 56.875C156.115 57.6625 158.199 58.9125 160 60.625C160.227 64.0329 160.852 67.3661 161.875 70.625C162.709 71.0416 163.541 71.4584 164.375 71.875C165.221 77.0658 166.471 82.0658 168.125 86.875C167.272 89.8011 166.439 92.7179 165.625 95.625C163.541 95.625 161.459 95.625 159.375 95.625C159.556 84.654 157.264 74.2373 152.5 64.375C143.582 60.384 134.207 58.7173 124.375 59.375C114.879 58.8161 105.713 60.2745 96.875 63.75C92.1307 72.9305 89.4225 82.7223 88.75 93.125C86.9575 95.1694 84.6657 96.4194 81.875 96.875C80.553 93.5046 79.303 90.1714 78.125 86.875C79.9062 77.6185 82.6146 68.8685 86.25 60.625C88.0516 58.9125 90.135 57.6625 92.5 56.875C92.559 49.9429 96.1006 46.6095 103.125 46.875C103.721 45.653 104.554 44.6114 105.625 43.75C108.125 43.3334 110.625 42.9166 113.125 42.5C113.82 42.0217 114.237 41.3967 114.375 40.625ZM110.625 63.125C119.801 62.9171 128.967 63.1254 138.125 63.75C142.046 64.5014 145.796 65.7514 149.375 67.5C153.446 75.9777 155.53 84.9361 155.625 94.375C148.53 94.1674 141.446 94.3758 134.375 95C130.524 96.5634 127.19 98.8551 124.375 101.875C121.56 98.8551 118.226 96.5634 114.375 95C107.304 94.3758 100.22 94.1674 93.125 94.375C93.3197 85.2771 95.1947 76.5271 98.75 68.125C102.674 66.0627 106.633 64.3961 110.625 63.125ZM103.125 96.875C107.838 97.5515 112.421 98.8015 116.875 100.625C121.274 116.431 115.441 122.89 99.375 120C96.6666 118.958 94.7916 117.083 93.75 114.375C92.0195 109.277 92.0195 104.277 93.75 99.375C97.0091 98.5959 100.134 97.7625 103.125 96.875ZM144.375 96.875C147.925 97.6505 151.467 98.4839 155 99.375C159.49 115.626 153.449 122.501 136.875 120C134.166 118.958 132.291 117.083 131.25 114.375C130.219 109.736 130.426 105.152 131.875 100.625C136.052 98.9184 140.219 97.6684 144.375 96.875ZM84.375 101.875C85.6199 101.768 86.6615 102.185 87.5 103.125C88.0954 122.08 97.4704 128.539 115.625 122.5C121.147 118.212 123.23 112.587 121.875 105.625C123.542 105.625 125.209 105.625 126.875 105.625C126.856 121.62 134.772 127.662 150.625 123.75C153.234 122.76 155.526 121.301 157.5 119.375C158.615 113.621 160.074 107.996 161.875 102.5C165.577 102.067 167.66 103.733 168.125 107.5C167.265 112.19 166.015 116.773 164.375 121.25C163.627 122.877 162.377 123.918 160.625 124.375C160.292 131.511 158.417 138.177 155 144.375C130.157 171.306 108.491 168.806 90 136.875C89.7795 132.647 89.1545 128.481 88.125 124.375C86.3726 123.918 85.1226 122.877 84.375 121.25C82.0216 115.809 80.98 110.184 81.25 104.375C82.4934 103.668 83.535 102.834 84.375 101.875ZM109.375 163.125C119.167 168.09 128.959 168.09 138.75 163.125C139.166 166.459 139.584 169.791 140 173.125C140.625 173.75 141.25 174.375 141.875 175C153.326 179.095 164.576 183.678 175.625 188.75C181.42 193.467 184.754 199.51 185.625 206.875C144.791 206.875 103.958 206.875 63.125 206.875C65.0224 195.178 71.689 187.469 83.125 183.75C89.8452 181.58 96.5119 179.288 103.125 176.875C111.734 179.033 120.484 179.866 129.375 179.375C129.375 178.125 129.375 176.875 129.375 175.625C122.371 176.344 115.287 175.719 108.125 173.75C109.305 170.351 109.721 166.81 109.375 163.125Z" fill="black"/>
<path opacity="0.762" fill-rule="evenodd" clip-rule="evenodd" d="M96.875 84.375C103.971 84.1673 111.054 84.3757 118.125 85C119.748 87.9936 118.706 89.452 115 89.375C109.983 87.8083 104.983 87.8083 100 89.375C97.4754 88.7101 96.4338 87.0435 96.875 84.375Z" fill="black"/>
<path opacity="0.763" fill-rule="evenodd" clip-rule="evenodd" d="M130.625 84.375C137.709 84.375 144.791 84.375 151.875 84.375C152.316 87.0435 151.275 88.7101 148.75 89.375C142.728 88.2806 136.686 88.0724 130.625 88.75C129.145 87.3181 129.145 85.8599 130.625 84.375Z" fill="black"/>
<path opacity="0.708" fill-rule="evenodd" clip-rule="evenodd" d="M103.125 99.375C105.991 99.0545 108.699 99.4711 111.25 100.625C112.221 104.287 112.013 107.829 110.625 111.25C103.632 113.642 100.924 111.35 102.5 104.375C103.616 105.889 104.658 105.889 105.625 104.375C102.427 103.478 101.594 101.811 103.125 99.375Z" fill="black"/>
<path opacity="0.708" fill-rule="evenodd" clip-rule="evenodd" d="M138.125 99.375C140.99 99.0545 143.699 99.4711 146.25 100.625C147.221 104.287 147.013 107.829 145.625 111.25C138.633 113.642 135.924 111.35 137.5 104.375C138.616 105.889 139.658 105.889 140.625 104.375C137.428 103.478 136.594 101.811 138.125 99.375Z" fill="black"/>
<path opacity="0.661" fill-rule="evenodd" clip-rule="evenodd" d="M116.875 131.875C121.875 133.541 126.875 133.541 131.875 131.875C131.226 135.969 128.726 137.635 124.375 136.875C120.024 137.635 117.524 135.969 116.875 131.875Z" fill="black"/>
<path opacity="0.62" fill-rule="evenodd" clip-rule="evenodd" d="M104.375 141.875C117.07 146.784 129.779 146.784 142.5 141.875C143.125 142.291 143.75 142.709 144.375 143.125C138.755 148.191 132.089 150.274 124.375 149.375C117.62 150.022 111.37 148.564 105.625 145C104.684 144.161 104.268 143.12 104.375 141.875Z" fill="black"/>
<path opacity="0.585" fill-rule="evenodd" clip-rule="evenodd" d="M136.875 174.375C139.031 174.804 139.656 176.054 138.75 178.125C136.626 179.258 134.334 179.674 131.875 179.375C131.875 178.125 131.875 176.875 131.875 175.625C133.874 175.96 135.54 175.543 136.875 174.375Z" fill="black"/>
</svg>
