<svg width="70" height="70" viewBox="0 0 70 70" fill="none" xmlns="http://www.w3.org/2000/svg">
<path d="M18.025 9.44997C17.64 9.58997 16.94 10.15 16.45 10.675L15.575 11.62V35.035V58.45L16.73 59.57L17.85 60.725L29.575 60.83L41.3 60.935V63C41.3 64.155 41.405 65.1 41.51 65.1C41.615 65.1 42.175 64.82 42.735 64.505C43.68 63.945 43.82 63.945 44.765 64.505C45.325 64.82 45.885 65.1 45.99 65.1C46.095 65.1 46.2 64.155 46.2 63.035V60.97L48.79 60.83C51.765 60.69 52.99 60.06 53.97 58.065C54.565 56.98 54.6 55.23 54.6 36.855C54.6 17.43 54.565 16.765 53.9 15.68C53.025 14.21 53.025 12.39 53.9 10.92C54.285 10.29 54.53 9.62497 54.425 9.41497C54.145 9.02997 19.005 9.02997 18.025 9.44997ZM52.255 11.2C52.08 11.9 51.765 11.9 35.84 11.9C25.235 11.9 19.6 12.005 19.6 12.25C19.6 12.495 25.2 12.6 35.7 12.6C51.555 12.6 51.8 12.6 51.8 13.3C51.8 14 51.555 14 37.8 14C28.7 14 23.8 14.105 23.8 14.35C23.8 14.595 28.735 14.7 37.94 14.7C51.765 14.7 52.08 14.7 52.255 15.4C52.43 16.1 52.255 16.1 35.49 16.1H18.515L17.675 15.225C17.115 14.7 16.8 13.965 16.8 13.3C16.8 12.635 17.115 11.9 17.675 11.375L18.515 10.5H35.49C52.255 10.5 52.43 10.5 52.255 11.2ZM19.88 17.5H21V34.65C21 45.85 21.105 51.8 21.35 51.8C21.595 51.8 21.7 45.85 21.7 34.65V17.5H37.45H53.2V37.1C53.2 51.52 53.095 56.91 52.78 57.575C51.905 59.5 51.8 59.5 34.475 59.5H18.515L17.675 58.625L16.8 57.785V37.135V16.485L17.78 17.01C18.305 17.255 19.25 17.5 19.88 17.5ZM45.5 62.475V64.05L44.625 63.49C43.82 62.965 43.68 62.965 42.875 63.49L42 64.05V62.475V60.9H43.75H45.5V62.475Z" fill="black"/>
<path d="M34.65 31.29C34.65 35 34.79 37.485 35 37.625C35.21 37.73 35.455 37.59 35.56 37.275C35.77 36.785 35.875 36.785 36.61 37.275C37.8 38.045 38.99 37.905 40.04 36.89C40.81 36.085 40.95 35.665 40.95 33.81C40.95 32.095 40.81 31.465 40.25 30.87C39.235 29.785 37.975 29.54 36.925 30.24L36.085 30.8L35.98 28.105C35.875 25.83 35.77 25.375 35.28 25.27C34.685 25.165 34.65 25.62 34.65 31.29ZM39.13 31.57C39.69 32.13 39.69 35.42 39.13 35.98C38.885 36.225 38.29 36.4 37.8 36.4C37.31 36.4 36.715 36.225 36.47 35.98C35.91 35.42 35.91 32.13 36.47 31.57C36.995 31.045 38.605 31.045 39.13 31.57Z" fill="black"/>
<path d="M27.93 30.1C27.58 30.31 27.3 30.73 27.3 30.975C27.3 31.605 27.335 31.605 28.56 31.15C29.68 30.695 31.15 31.465 31.15 32.515C31.15 33.005 30.8 33.215 29.505 33.39C27.545 33.635 26.6 34.405 26.6 35.735C26.6 37.52 28.77 38.36 30.415 37.24C31.185 36.68 31.255 36.68 31.57 37.24C32.2 38.36 32.55 37.38 32.55 34.51C32.55 32.235 32.41 31.395 31.92 30.8C31.22 29.925 28.875 29.54 27.93 30.1ZM31.15 34.93C31.15 35.77 29.96 36.855 29.19 36.68C28.875 36.645 28.42 36.33 28.245 35.98C27.685 35.14 28.525 34.3 29.96 34.3C30.87 34.3 31.15 34.44 31.15 34.93Z" fill="black"/>
<path d="M44.1 30.205C42.805 30.87 42.315 32.095 42.455 34.265C42.56 35.805 42.77 36.33 43.54 36.995C44.94 38.185 48.3 37.905 48.3 36.61C48.3 36.19 47.95 36.12 46.515 36.295C44.31 36.54 43.75 36.015 43.75 33.74C43.75 31.675 44.485 31.01 46.41 31.29C48.16 31.5 48.65 31.08 47.53 30.31C46.585 29.645 45.29 29.61 44.1 30.205Z" fill="black"/>
<path d="M21 55.3C21 56.455 21.14 57.4 21.35 57.4C21.56 57.4 21.7 56.455 21.7 55.3C21.7 54.145 21.56 53.2 21.35 53.2C21.14 53.2 21 54.145 21 55.3Z" fill="black"/>
</svg>
